<svg width="40" height="40" viewBox="0 0 40 40" fill="none" xmlns="http://www.w3.org/2000/svg">
<path fill-rule="evenodd" clip-rule="evenodd" d="M9.99999 16.75C7.74483 16.75 5.91666 18.5782 5.91666 20.8334C5.91666 23.0885 7.74483 24.9167 9.99999 24.9167C12.2552 24.9167 14.0833 23.0885 14.0833 20.8334C14.0833 18.5782 12.2552 16.75 9.99999 16.75ZM7.41666 20.8334C7.41666 19.4066 8.57325 18.25 9.99999 18.25C11.4267 18.25 12.5833 19.4066 12.5833 20.8334C12.5833 22.2601 11.4267 23.4167 9.99999 23.4167C8.57325 23.4167 7.41666 22.2601 7.41666 20.8334Z" fill="black"/>
<path fill-rule="evenodd" clip-rule="evenodd" d="M21.9446 4.21724C20.853 3.12569 19.1607 3.11199 18.0555 4.21724L13.0227 9.25003L10.4436 9.25003C8.60582 9.25001 7.15019 9.25 6.01098 9.40316C4.83856 9.56079 3.88961 9.89291 3.14124 10.6413C2.39288 11.3896 2.06076 12.3386 1.90314 13.511C1.74997 14.6502 1.74998 16.1059 1.75 17.9436V25.3898C1.74998 27.2275 1.74997 28.6832 1.90314 29.8224C2.06076 30.9948 2.39288 31.9438 3.14124 32.6921C3.88961 33.4405 4.83856 33.7726 6.01098 33.9302C7.15018 34.0834 8.60585 34.0834 10.4436 34.0834H29.5565C31.3942 34.0834 32.8498 34.0834 33.989 33.9302C35.1614 33.7726 36.1104 33.4405 36.8588 32.6921C37.6071 31.9438 37.9392 30.9948 38.0969 29.8224C38.25 28.6832 38.25 27.2275 38.25 25.3898V17.9434C38.25 16.1058 38.25 14.6502 38.0969 13.511C37.9392 12.3386 37.6071 11.3896 36.8588 10.6413C36.1104 9.89291 35.1614 9.56079 33.989 9.40316C32.8498 9.25 31.3942 9.25001 29.5564 9.25003L26.9773 9.25003L21.9446 4.21724ZM21.4421 5.83612C21.1535 6.33276 20.6158 6.66669 20 6.66669C19.3842 6.66669 18.8465 6.33276 18.5579 5.83612L15.144 9.25003H24.856L21.4421 5.83612ZM6.21085 10.8898C5.20476 11.0251 4.62511 11.2787 4.2019 11.7019C3.77869 12.1251 3.52503 12.7048 3.38976 13.7109C3.25159 14.7385 3.25 16.0932 3.25 18V25.3334C3.25 25.8421 3.25011 26.3115 3.2529 26.7459C3.55235 26.9889 4.15238 27.4254 5.06565 27.8663C6.48199 28.55 8.66274 29.25 11.6667 29.25C14.7449 29.25 17.1729 27.7195 19.6881 26.0427L20.0003 25.8342C22.3555 24.2601 24.8641 22.5834 27.9167 22.5834C29.8429 22.5834 31.6015 23.4565 33.2083 24.4966C34.4209 25.2815 35.5616 26.1694 36.7451 26.996C36.7498 26.493 36.75 25.9412 36.75 25.3334V18C36.75 16.0932 36.7484 14.7385 36.6102 13.7109C36.475 12.7048 36.2213 12.1251 35.7981 11.7019C35.3749 11.2787 34.7952 11.0251 33.7892 10.8898C32.7615 10.7516 31.4068 10.75 29.5 10.75H10.5C8.59318 10.75 7.23851 10.7516 6.21085 10.8898ZM3.38976 29.6225C3.34848 29.3155 3.31939 28.9793 3.2989 28.6079C3.61334 28.8021 3.98453 29.01 4.41352 29.2171C6.01801 29.9917 8.42059 30.75 11.6667 30.75C15.2551 30.75 18.0354 28.9473 20.5202 27.2907L20.6867 27.1797C23.1701 25.5233 25.3288 24.0834 27.9167 24.0834C29.3959 24.0834 30.8495 24.7566 32.3932 25.7558C33.7997 26.6663 35.205 27.7991 36.6914 28.7715C36.6717 29.0788 36.6454 29.3612 36.6102 29.6225C36.475 30.6286 36.2213 31.2083 35.7981 31.6315C35.3749 32.0547 34.7952 32.3083 33.7892 32.4436C32.7615 32.5818 31.4068 32.5834 29.5 32.5834H10.5C8.59318 32.5834 7.23851 32.5818 6.21085 32.4436C5.20476 32.3083 4.62511 32.0547 4.2019 31.6315C3.77869 31.2083 3.52503 30.6286 3.38976 29.6225Z" fill="black"/>
</svg>
