<svg width="40" height="40" viewBox="0 0 40 40" fill="none" xmlns="http://www.w3.org/2000/svg">
<path fill-rule="evenodd" clip-rule="evenodd" d="M12.8257 11.171C13.4457 10.7379 14.2967 10.8706 14.7556 11.4717L16.8402 14.2023C17.3635 14.8878 17.4079 15.8258 16.9518 16.5577L16.0144 18.0617C16.3108 18.5592 16.9948 19.5729 18.2962 20.8748C19.5972 22.1764 20.6101 22.8607 21.1075 23.1573L22.6104 22.2198C23.3422 21.7633 24.2802 21.8078 24.9656 22.3315L27.6954 24.4174C28.2957 24.8762 28.4284 25.7264 27.9966 26.3463L27.2908 27.3595C26.3938 28.6472 24.7799 29.5036 23.1118 28.8745C21.3388 28.2058 18.6863 26.7559 15.5516 23.6197C12.4238 20.4904 10.9702 17.846 10.2963 16.0765C9.66012 14.4062 10.5141 12.7855 11.8044 11.8843L12.8257 11.171ZM12.6633 13.114L13.6149 12.4494L15.6479 15.1125C15.7927 15.3022 15.805 15.5618 15.6788 15.7643L14.6978 17.3384C14.4493 17.737 14.4011 18.2675 14.6635 18.7231C14.9911 19.292 15.7563 20.4556 17.2353 21.9352C18.7143 23.4149 19.8773 24.1805 20.446 24.5083C20.9016 24.7709 21.4323 24.7226 21.831 24.474L23.4043 23.4925C23.6064 23.3664 23.8655 23.3787 24.0548 23.5233L26.7176 25.5581L26.06 26.5021C25.4267 27.4113 24.4775 27.7864 23.6411 27.471C22.0823 26.8831 19.6079 25.5561 16.6125 22.5593C13.6226 19.568 12.2911 17.0998 11.698 15.5427C11.3785 14.7036 11.7528 13.75 12.6633 13.114Z" fill="black"/>
<path fill-rule="evenodd" clip-rule="evenodd" d="M11.2769 2.58333H26.2231C28.0608 2.58331 29.5165 2.5833 30.6557 2.73646C31.8281 2.89409 32.777 3.22621 33.5254 3.97457C34.2738 4.72293 34.6059 5.67188 34.7635 6.84431C34.7915 7.0522 34.8143 7.27063 34.833 7.5H36.6666C37.1269 7.5 37.5 7.87309 37.5 8.33333C37.5 8.79357 37.1269 9.16666 36.6666 9.16666H34.9055C34.9167 9.80644 34.9167 10.5083 34.9166 11.2769V19.1667H36.6666C37.1269 19.1667 37.5 19.5398 37.5 20C37.5 20.4602 37.1269 20.8333 36.6666 20.8333H34.9166V28.7231C34.9167 29.4917 34.9167 30.1936 34.9055 30.8333H36.6666C37.1269 30.8333 37.5 31.2064 37.5 31.6667C37.5 32.1269 37.1269 32.5 36.6666 32.5H34.833C34.8143 32.7294 34.7915 32.9478 34.7635 33.1557C34.6059 34.3281 34.2738 35.2771 33.5254 36.0254C32.777 36.7738 31.8281 37.1059 30.6557 37.2635C29.5165 37.4167 28.0609 37.4167 26.2232 37.4167H11.2768C9.43916 37.4167 7.98347 37.4167 6.84429 37.2635C5.67187 37.1059 4.72292 36.7738 3.97456 36.0254C3.22619 35.2771 2.89408 34.3281 2.73645 33.1557C2.58328 32.0165 2.5833 30.5608 2.58331 28.7231V11.2769C2.5833 9.43915 2.58328 7.98352 2.73645 6.84431C2.89408 5.67188 3.22619 4.72293 3.97456 3.97457C4.72292 3.22621 5.67187 2.89409 6.84429 2.73646C7.9835 2.5833 9.43914 2.58331 11.2769 2.58333ZM33.4166 11.3333V19.1667H31.6666C31.2064 19.1667 30.8333 19.5398 30.8333 20C30.8333 20.4602 31.2064 20.8333 31.6666 20.8333H33.4166V28.6667C33.4166 29.4845 33.4164 30.2008 33.4051 30.8333H31.6666C31.2064 30.8333 30.8333 31.2064 30.8333 31.6667C30.8333 32.1269 31.2064 32.5 31.6666 32.5H33.3277C33.3132 32.6589 33.2964 32.8106 33.2769 32.9558C33.1416 33.9619 32.888 34.5416 32.4647 34.9648C32.0415 35.388 31.4619 35.6416 30.4558 35.7769C29.4281 35.9151 28.0735 35.9167 26.1666 35.9167H11.3333C9.4265 35.9167 8.07183 35.9151 7.04416 35.7769C6.03807 35.6416 5.45843 35.388 5.03522 34.9648C4.61201 34.5416 4.35834 33.9619 4.22307 32.9558C4.08491 31.9282 4.08331 30.5735 4.08331 28.6667V11.3333C4.08331 9.42651 4.08491 8.07184 4.22307 7.04418C4.35834 6.03809 4.61201 5.45844 5.03522 5.03523C5.45843 4.61202 6.03807 4.35835 7.04416 4.22309C8.07183 4.08492 9.42649 4.08333 11.3333 4.08333H26.1666C28.0735 4.08333 29.4281 4.08492 30.4558 4.22309C31.4619 4.35835 32.0415 4.61202 32.4647 5.03523C32.888 5.45844 33.1416 6.03809 33.2769 7.04418C33.2964 7.18938 33.3132 7.3411 33.3277 7.5H31.6666C31.2064 7.5 30.8333 7.87309 30.8333 8.33333C30.8333 8.79357 31.2064 9.16666 31.6666 9.16666H33.4051C33.4164 9.79915 33.4166 10.5154 33.4166 11.3333Z" fill="black"/>
</svg>
