<svg width="40" height="40" viewBox="0 0 40 40" fill="none" xmlns="http://www.w3.org/2000/svg">
<path d="M30 16.6667H13.3333V18.3333H30V16.6667Z" fill="black"/>
<path d="M13.3333 25H30V26.6667H13.3333V25Z" fill="black"/>
<path d="M30 20.8333H13.3333V22.5H30V20.8333Z" fill="black"/>
<path fill-rule="evenodd" clip-rule="evenodd" d="M17.9436 1.75L26.144 1.75L34.0833 9.68934V29.5564C34.0833 31.3942 34.0834 32.8498 33.9302 33.989C33.7726 35.1614 33.4405 36.1104 32.6921 36.8588C31.9437 37.6071 30.9948 37.9392 29.8224 38.0969C28.6831 38.25 27.2275 38.25 25.3898 38.25H17.9437C16.1059 38.25 14.6502 38.25 13.511 38.0969C12.3386 37.9392 11.3896 37.6071 10.6412 36.8588C9.89288 36.1104 9.56076 35.1614 9.40314 33.989C9.24997 32.8498 9.24998 31.3942 9.25 29.5565V10.4436C9.24998 8.60586 9.24997 7.15017 9.40314 6.01098C9.56076 4.83856 9.89288 3.88961 10.6412 3.14124C11.3896 2.39288 12.3386 2.06076 13.511 1.90314C14.6502 1.74997 16.1058 1.74998 17.9436 1.75ZM13.7108 3.38976C12.7048 3.52502 12.1251 3.77869 11.7019 4.2019C11.2787 4.62511 11.025 5.20476 10.8898 6.21085C10.7516 7.23851 10.75 8.59318 10.75 10.5V29.5C10.75 31.4068 10.7516 32.7615 10.8898 33.7892C11.025 34.7952 11.2787 35.3749 11.7019 35.7981C12.1251 36.2213 12.7048 36.475 13.7109 36.6102C14.7385 36.7484 16.0932 36.75 18 36.75H25.3333C27.2402 36.75 28.5948 36.7484 29.6225 36.6102C30.6286 36.475 31.2082 36.2213 31.6314 35.7981C32.0546 35.3749 32.3083 34.7952 32.4436 33.7892C32.5817 32.7615 32.5833 31.4068 32.5833 29.5V10.75L27.7886 10.75C27.3558 10.7501 26.9589 10.7501 26.6361 10.7067C26.2806 10.6589 25.9049 10.5465 25.5959 10.2374C25.2869 9.92841 25.1744 9.55269 25.1266 9.19721C25.0832 8.8744 25.0833 8.47756 25.0833 8.04474L25.0833 3.25H18C16.0932 3.25 14.7385 3.25159 13.7108 3.38976ZM26.5833 4.31066L31.5227 9.25H27.8333C27.3407 9.25 27.0467 9.24841 26.836 9.22008C26.7394 9.20709 26.6911 9.1918 26.6693 9.18284C26.6643 9.18077 26.6609 9.17915 26.659 9.17814L26.6566 9.17678L26.6552 9.17433C26.6542 9.1724 26.6526 9.16908 26.6505 9.16404C26.6415 9.14226 26.6262 9.09389 26.6133 8.99734C26.5849 8.78661 26.5833 8.49261 26.5833 8V4.31066Z" fill="black"/>
<path d="M9.16668 4.08333C7.73994 4.08333 6.58334 5.23993 6.58334 6.66666V33.3333C6.58334 34.7601 7.73994 35.9167 9.16668 35.9167V37.4167C6.91151 37.4167 5.08334 35.5885 5.08334 33.3333V6.66666C5.08334 4.4115 6.91151 2.58333 9.16668 2.58333V4.08333Z" fill="black"/>
</svg>
