<svg width="24" height="36" viewBox="0 0 24 36" fill="none" xmlns="http://www.w3.org/2000/svg">
<path d="M19.9167 14.9167H4.08334V16.5833H19.9167V14.9167Z" fill="#6B6B6E"/>
<path d="M4.08334 23.25H19.9167V24.9167H4.08334V23.25Z" fill="#6B6B6E"/>
<path d="M19.9167 19.0833H4.08334V20.75H19.9167V19.0833Z" fill="#6B6B6E"/>
<path fill-rule="evenodd" clip-rule="evenodd" d="M8.69358 3.21614e-07L16.0607 6.79242e-07L24 7.93934V27.3064C24 29.1442 24 30.5998 23.8469 31.739C23.6892 32.9114 23.3571 33.8604 22.6088 34.6088C21.8604 35.3571 20.9114 35.6892 19.739 35.8469C18.5998 36 17.1442 36 15.3065 36H8.69366C6.85592 36 5.40019 36 4.26098 35.8469C3.08856 35.6892 2.13961 35.3571 1.39124 34.6088C0.642881 33.8604 0.310764 32.9114 0.153136 31.739C-2.73585e-05 30.5998 -1.4955e-05 29.1442 3.03741e-07 27.3065L3.03745e-07 8.69358C-1.4955e-05 6.85586 -2.73585e-05 5.40017 0.153136 4.26098C0.310764 3.08856 0.642881 2.13961 1.39124 1.39124C2.13961 0.64288 3.08856 0.310763 4.26098 0.153135C5.40019 -2.81632e-05 6.85582 -1.55332e-05 8.69358 3.21614e-07ZM4.46085 1.63976C3.45476 1.77502 2.87511 2.02869 2.4519 2.4519C2.02869 2.87511 1.77502 3.45476 1.63976 4.46085C1.50159 5.48851 1.5 6.84318 1.5 8.75V27.25C1.5 29.1568 1.50159 30.5115 1.63976 31.5392C1.77502 32.5452 2.02869 33.1249 2.4519 33.5481C2.87511 33.9713 3.45476 34.225 4.46085 34.3602C5.48852 34.4984 6.84319 34.5 8.75001 34.5H15.25C17.1568 34.5 18.5115 34.4984 19.5392 34.3602C20.5452 34.225 21.1249 33.9713 21.5481 33.5481C21.9713 33.1249 22.225 32.5452 22.3602 31.5392C22.4984 30.5115 22.5 29.1568 22.5 27.25V9L17.7053 9C17.2724 9.00006 16.8756 9.0001 16.5528 8.9567C16.1973 8.90891 15.8216 8.79646 15.5126 8.48744C15.2035 8.17841 15.0911 7.80269 15.0433 7.44721C14.9999 7.1244 14.9999 6.72756 15 6.29474L15 1.5H8.75C6.84318 1.5 5.48851 1.50159 4.46085 1.63976ZM16.5 2.56066L21.4393 7.5H17.75C17.2574 7.5 16.9634 7.49841 16.7527 7.47008C16.6561 7.45709 16.6077 7.4418 16.586 7.43284C16.5809 7.43077 16.5776 7.42915 16.5757 7.42814L16.5732 7.42678L16.5719 7.42433C16.5709 7.4224 16.5692 7.41908 16.5672 7.41404C16.5582 7.39226 16.5429 7.34389 16.5299 7.24734C16.5016 7.03661 16.5 6.74261 16.5 6.25V2.56066Z" fill="#6B6B6E"/>
</svg>
