<svg width="16" height="20" viewBox="0 0 16 20" fill="none" xmlns="http://www.w3.org/2000/svg">
<path d="M3.86425 7.8443C3.50216 7.64314 3.04556 7.7736 2.8444 8.13568C2.64324 8.49777 2.7737 8.95437 3.13578 9.15553L6.54309 11.0485C7.74001 11.7134 8.26002 11.7134 9.45694 11.0485L12.8642 9.15553C13.2263 8.95437 13.3568 8.49777 13.1556 8.13568C12.9545 7.7736 12.4979 7.64314 12.1358 7.8443L8.00002 10.1419L3.86425 7.8443Z" fill="#2F3040" fill-opacity="0.6"/>
<path fill-rule="evenodd" clip-rule="evenodd" d="M4 5C2.59986 5 1.8998 5 1.36502 5.27248C0.894613 5.51216 0.512161 5.89461 0.272477 6.36502C-7.83801e-06 6.89979 -9.43313e-06 7.59986 -1.26086e-05 8.99999L-1.71445e-05 11C-2.03199e-05 12.4001 -2.19047e-05 13.1002 0.272461 13.635C0.512144 14.1054 0.894596 14.4879 1.365 14.7275C1.89978 15 2.59985 15 3.99998 15H12C13.4001 15 14.1002 15 14.635 14.7275C15.1054 14.4879 15.4878 14.1054 15.7275 13.635C16 13.1002 16 12.4002 16 11V9.00002C16 7.59989 16 6.89982 15.7275 6.36504C15.4878 5.89464 15.1054 5.51219 14.635 5.2725C14.1002 5.00002 13.4001 5.00002 12 5.00002L4 5ZM1.5 7.50002C1.5 6.94774 1.94772 6.50002 2.5 6.50002H13.5C14.0523 6.50002 14.5 6.94774 14.5 7.50002V12.5C14.5 13.0523 14.0523 13.5 13.5 13.5H2.5C1.94772 13.5 1.5 13.0523 1.5 12.5V7.50002Z" fill="#2F3040" fill-opacity="0.6"/>
</svg>
