<svg width="20" height="20" viewBox="0 0 20 20" fill="none" xmlns="http://www.w3.org/2000/svg">
<path d="M6.70012 4.73359C6.79802 4.67027 6.7518 4.5223 6.63415 4.5223H3.60532L1.12653 12.9353C1.09618 13.0383 1.08075 13.145 1.08075 13.2521V18.3607C1.08075 18.9977 1.61317 19.5139 2.27001 19.5139H17.7301C18.3869 19.5139 18.9193 18.9977 18.9193 18.3607V13.2521C18.9193 13.145 18.904 13.0383 18.8736 12.9353L17.9753 9.88668C17.9439 9.78004 17.7905 9.77367 17.7499 9.87734L17.1355 11.4415L17.7036 13.1714H14.757C14.1001 13.1714 13.5871 13.7018 13.3722 14.3036C12.8885 15.6583 11.5615 16.631 10 16.631C8.4386 16.631 7.11141 15.6583 6.62778 14.3036C6.4129 13.7018 5.89985 13.1714 5.24309 13.1714H2.2938L4.50239 5.67554H5.24309L6.70012 4.73359Z" fill="black"/>
<path d="M18.3247 0.486084L14.9601 11.3614C14.854 11.7043 14.4547 11.8716 14.1246 11.7116L10.7928 10.0961L9.76154 11.096C9.67283 11.1821 9.52498 11.0935 9.56462 10.978L9.99994 9.71171L15.3515 3.94573L8.81068 9.13515L6.26084 7.89886C5.83127 7.69054 5.82041 7.09995 6.24201 6.87694L18.3247 0.486084Z" fill="black"/>
</svg>
