<svg width="124" height="48" viewBox="0 0 124 48" fill="none" xmlns="http://www.w3.org/2000/svg">
<g clip-path="url(#clip_kira_logo)">
<path d="M94.2069 25.4518H89.4483C89.4483 26.1968 90.138 26.383 90.4828 26.383C90.4828 27.9349 91.9311 28.9696 93.069 28.9696H97.3104C97.3104 26.3209 95.2414 25.5208 94.2069 25.4518Z" fill="black"/>
<path d="M100 15.1056L101.207 17.0023L103.103 18.2094L101.207 19.4166L100 21.3133L98.793 19.4166L96.8966 18.2094L98.793 17.0023L100 15.1056Z" fill="black"/>
<path d="M98.4483 37.4535C99.4828 37.4535 100 37.9708 100 37.9708C100 37.9708 100.517 37.4535 101.552 37.4535C102.21 37.4535 102.7 37.5372 103.369 37.6514C103.752 37.7167 104.194 37.792 104.759 37.8674C103.207 39.7297 102.276 40.5574 101.552 40.5574C101.552 40.5574 100.624 40.5057 100 40.5057C99.3759 40.5057 98.4483 40.5574 98.4483 40.5574C97.7241 40.5574 96.7931 39.7297 95.2414 37.8674C95.8062 37.792 96.2477 37.7167 96.6307 37.6514C97.2998 37.5372 97.7904 37.4535 98.4483 37.4535Z" fill="black"/>
<path d="M76 24.0034C76 24.8268 76.0424 25.6481 76.1264 26.4641C76.5524 21.67 83.3681 16.4719 89.6801 11.658C94.2697 8.15763 98.5931 4.8604 100 2.06925C101.407 4.8604 105.73 8.15763 110.32 11.658C116.632 16.4719 123.448 21.67 123.874 26.4641C123.958 25.6481 124 24.8268 124 24.0034C124 20.8512 123.379 17.7299 122.173 14.8177C120.967 11.9054 119.199 9.25934 116.971 7.03042C114.742 4.8015 112.096 3.03343 109.184 1.82715C106.273 0.620865 103.152 0 99.9999 0C96.8482 0 93.7274 0.620865 90.8156 1.82715C87.9038 3.03343 85.258 4.8015 83.0294 7.03042C80.8008 9.25934 79.033 11.9054 77.8269 14.8177C76.6208 17.7299 76 20.8512 76 24.0034Z" fill="black"/>
<path d="M86.7586 30.4181C85.7102 37.1288 86.472 41.9661 87.6402 44.5789C85.9659 43.5729 84.4168 42.3639 83.0294 40.9763C81.3786 39.3252 79.9806 37.4453 78.8765 35.3978C76.8019 25.8696 90.8563 13.9201 97.1085 8.60429C98.8578 7.11697 99.9963 6.14895 99.9999 5.89856C100.004 6.14886 101.141 7.11626 102.89 8.60266L102.892 8.60429C109.144 13.9201 123.198 25.8696 121.124 35.3978C120.019 37.4453 118.621 39.3252 116.971 40.9763C115.583 42.3639 114.034 43.5729 112.36 44.5789C113.528 41.9661 114.29 37.1288 113.241 30.4181C112.889 28.1633 112.014 26.1058 110.873 24.2311C109.777 23.9643 108.343 23.7228 106.828 24.0034C105.367 24.2738 104.246 24.7139 103.509 25.0724C103.067 25.2873 102.567 24.9655 102.772 24.5187C103.161 23.6704 104.072 22.6004 106.207 22.2445C107.628 22.0077 108.672 22.0118 109.42 22.1075C107.738 19.8851 105.782 17.9537 104.089 16.2827C101.804 14.0269 99.9999 12.2456 99.9999 10.8636C99.9999 12.2456 98.1956 14.0269 95.9106 16.2827C94.218 17.9537 92.2617 19.8851 90.5796 22.1075C91.3279 22.0118 92.3723 22.0077 93.7931 22.2445C95.9281 22.6004 96.8392 23.6704 97.2279 24.5187C97.4327 24.9655 96.9328 25.2873 96.4908 25.0724C95.7535 24.7139 94.6326 24.2738 93.1724 24.0034C91.6574 23.7228 90.2226 23.9643 89.1273 24.2311C87.9856 26.1058 87.1109 28.1633 86.7586 30.4181Z" fill="black"/>
<path d="M92.413 46.7758C88.6224 43.3861 86.5525 32.0427 89.0345 28.1419C88.4138 34.7635 95.1379 44.9028 99.9999 44.9028C104.862 44.9028 111.586 34.7635 110.966 28.1419C113.448 32.0427 111.378 43.3861 107.587 46.7758C102.689 48.4081 97.3109 48.4081 92.413 46.7758Z" fill="black"/>
<path d="M105.793 25.4518H110.552C110.552 26.1968 109.862 26.383 109.517 26.383C109.517 27.9349 108.069 28.9696 106.931 28.9696H102.69C102.69 26.3209 104.759 25.5208 105.793 25.4518Z" fill="black"/>
<path d="M97.931 33.8323C98.6552 34.2462 99.069 34.3497 100 34.3497C100.931 34.3497 101.345 34.2462 102.069 33.8323C102.793 33.4185 103.207 33.9358 102.069 34.5566C101.655 34.7827 101.377 34.9813 101.152 35.1425C100.76 35.4239 100.526 35.5912 100 35.5912C99.4738 35.5912 99.2404 35.4239 98.8477 35.1425C98.6227 34.9813 98.3455 34.7827 97.931 34.5566C96.7931 33.9358 97.2069 33.4185 97.931 33.8323Z" fill="black"/>
</g>
<path d="M34 26.4694V40.8425H36.8237V37.3137L37.9174 36.263L40.74 40.8227H44.1603L39.8463 34.3598L43.6631 30.4939H40.3224L36.8237 33.9038V26.4694H34Z" fill="black"/>
<path d="M45.2397 30.3154V40.8425H48.0634V30.3154H45.2397Z" fill="black"/>
<path fill-rule="evenodd" clip-rule="evenodd" d="M50.3645 40.8227V26.4694H56.708C57.3444 26.4694 57.9144 26.5751 58.4182 26.7866C58.9352 26.9848 59.3727 27.2624 59.7306 27.6192C60.1018 27.9761 60.3802 28.3924 60.5658 28.8682C60.7647 29.3308 60.8641 29.833 60.8641 30.3749C60.8641 32.2471 60.0687 33.7452 58.5773 34.3994L62.0572 40.8227H58.4182L55.2962 35.0933H53.4866V40.8227H50.3645ZM53.4866 28.888V32.8729H55.5944C56.3103 32.8729 56.8472 32.7143 57.2052 32.3971C57.5631 32.0799 57.7421 31.5644 57.7421 30.8507C57.7421 30.1635 57.5631 29.6678 57.2052 29.3638C56.8472 29.0466 56.3103 28.888 55.5944 28.888H53.4866Z" fill="black"/>
<path fill-rule="evenodd" clip-rule="evenodd" d="M67.3497 30.0962C66.5065 30.0962 65.6828 30.2078 64.8786 30.4308C64.0873 30.6539 63.4063 30.9688 62.8355 31.3755L63.9252 33.5209C64.3013 33.2191 64.7553 32.9829 65.2872 32.8123C65.832 32.6286 66.3833 32.5368 66.9411 32.5368C67.7453 32.5368 68.3485 32.7205 68.7506 33.0879C69.1527 33.4421 69.3538 33.9539 69.3538 34.6231H66.9411C65.4104 34.6231 64.2754 34.9052 63.536 35.4694C62.8096 36.0336 62.4464 36.8078 62.4464 37.7919C62.4464 38.4086 62.602 38.9596 62.9134 39.4451C63.2247 39.9306 63.6722 40.3111 64.2559 40.5867C64.8526 40.8622 65.5531 41 66.3573 41C67.9139 41 68.9776 40.508 69.5484 39.5239V40.8425H72V34.8002C72 31.7054 70.5902 30.0962 67.3497 30.0962ZM68.4977 38.5791C68.0955 38.8153 67.635 38.9334 67.1162 38.9334C66.5843 38.9334 66.1628 38.8219 65.8514 38.5988C65.5531 38.3626 65.4039 38.0477 65.4039 37.6541C65.4039 36.8274 66.0266 36.4141 67.2718 36.4141H69.3538V37.4966C69.1852 37.969 68.8998 38.3298 68.4977 38.5791Z" fill="black"/>
<path d="M46.646 23L47.806 24.8172L49.6288 25.9738L47.806 27.1303L46.646 28.9475L45.4859 27.1303L43.6631 25.9738L45.4859 24.8172L46.646 23Z" fill="black"/>
<path d="M6.98096 15.3818V19H5.76221V9.75781H9.1709C10.1823 9.75781 10.9736 10.016 11.5449 10.5322C12.1204 11.0485 12.4082 11.7319 12.4082 12.5825C12.4082 13.4797 12.1268 14.1715 11.564 14.6582C11.0054 15.1406 10.2035 15.3818 9.1582 15.3818H6.98096ZM6.98096 14.3853H9.1709C9.82259 14.3853 10.3219 14.2329 10.6689 13.9282C11.016 13.6193 11.1895 13.175 11.1895 12.5952C11.1895 12.0451 11.016 11.605 10.6689 11.2749C10.3219 10.9448 9.84587 10.7734 9.24072 10.7607H6.98096V14.3853ZM13.3794 15.5024C13.3794 14.8296 13.5106 14.2244 13.7729 13.687C14.0396 13.1496 14.4077 12.7349 14.8774 12.4429C15.3514 12.1509 15.891 12.0049 16.4961 12.0049C17.4313 12.0049 18.1867 12.3286 18.7622 12.9761C19.342 13.6235 19.6318 14.4847 19.6318 15.5596V15.6421C19.6318 16.3107 19.5028 16.9116 19.2446 17.4448C18.9907 17.9738 18.6247 18.3864 18.1465 18.6826C17.6725 18.9788 17.1266 19.127 16.5088 19.127C15.5778 19.127 14.8224 18.8032 14.2427 18.1558C13.6672 17.5083 13.3794 16.6514 13.3794 15.585V15.5024ZM14.5601 15.6421C14.5601 16.4038 14.7357 17.0153 15.0869 17.4766C15.4424 17.9378 15.9163 18.1685 16.5088 18.1685C17.1055 18.1685 17.5794 17.9357 17.9307 17.4702C18.2819 17.0005 18.4575 16.3446 18.4575 15.5024C18.4575 14.7492 18.2777 14.1398 17.918 13.6743C17.5625 13.2046 17.0885 12.9697 16.4961 12.9697C15.9163 12.9697 15.4487 13.2004 15.0933 13.6616C14.7378 14.1229 14.5601 14.783 14.5601 15.6421ZM27.1855 17.3813L28.5059 12.1318H29.6802L27.6807 19H26.7285L25.0591 13.7949L23.4341 19H22.4819L20.4888 12.1318H21.6567L23.0088 17.2734L24.6084 12.1318H25.5542L27.1855 17.3813ZM33.73 19.127C32.799 19.127 32.0415 18.8223 31.4575 18.2129C30.8735 17.5993 30.5815 16.7804 30.5815 15.7563V15.5405C30.5815 14.8592 30.7106 14.252 30.9688 13.7188C31.2311 13.1813 31.5951 12.7624 32.0605 12.4619C32.5303 12.1572 33.0381 12.0049 33.584 12.0049C34.4769 12.0049 35.1709 12.299 35.666 12.8872C36.1611 13.4754 36.4087 14.3175 36.4087 15.4136V15.9023H31.7559C31.7728 16.5794 31.9696 17.1274 32.3462 17.5464C32.7271 17.9611 33.2095 18.1685 33.7935 18.1685C34.2082 18.1685 34.5594 18.0838 34.8472 17.9146C35.1349 17.7453 35.3867 17.521 35.6025 17.2417L36.3198 17.8003C35.7443 18.6847 34.881 19.127 33.73 19.127ZM33.584 12.9697C33.11 12.9697 32.7122 13.1432 32.3906 13.4902C32.069 13.833 31.8701 14.3154 31.7939 14.9375H35.2344V14.8486C35.2005 14.252 35.0397 13.7907 34.752 13.4648C34.4642 13.1348 34.0749 12.9697 33.584 12.9697ZM41.0933 13.1855C40.9155 13.1559 40.723 13.1411 40.5156 13.1411C39.7454 13.1411 39.2228 13.4691 38.9478 14.125V19H37.7734V12.1318H38.916L38.9351 12.9253C39.3201 12.3117 39.866 12.0049 40.5728 12.0049C40.8013 12.0049 40.9748 12.0345 41.0933 12.0938V13.1855ZM44.9019 19.127C43.9709 19.127 43.2134 18.8223 42.6294 18.2129C42.0454 17.5993 41.7534 16.7804 41.7534 15.7563V15.5405C41.7534 14.8592 41.8825 14.252 42.1406 13.7188C42.403 13.1813 42.7669 12.7624 43.2324 12.4619C43.7021 12.1572 44.21 12.0049 44.7559 12.0049C45.6488 12.0049 46.3428 12.299 46.8379 12.8872C47.333 13.4754 47.5806 14.3175 47.5806 15.4136V15.9023H42.9277C42.9447 16.5794 43.1414 17.1274 43.5181 17.5464C43.8989 17.9611 44.3813 18.1685 44.9653 18.1685C45.38 18.1685 45.7313 18.0838 46.019 17.9146C46.3068 17.7453 46.5586 17.521 46.7744 17.2417L47.4917 17.8003C46.9162 18.6847 46.0529 19.127 44.9019 19.127ZM44.7559 12.9697C44.2819 12.9697 43.8841 13.1432 43.5625 13.4902C43.2409 13.833 43.042 14.3154 42.9658 14.9375H46.4062V14.8486C46.3724 14.252 46.2116 13.7907 45.9238 13.4648C45.6361 13.1348 45.2467 12.9697 44.7559 12.9697ZM48.6597 15.5088C48.6597 14.4551 48.9093 13.6087 49.4087 12.9697C49.908 12.3265 50.5618 12.0049 51.3701 12.0049C52.1742 12.0049 52.811 12.2799 53.2808 12.8301V9.25H54.4551V19H53.376L53.3188 18.2637C52.8491 18.8392 52.1953 19.127 51.3574 19.127C50.5618 19.127 49.9123 18.8011 49.4087 18.1494C48.9093 17.4977 48.6597 16.6471 48.6597 15.5977V15.5088ZM49.834 15.6421C49.834 16.4207 49.9948 17.0301 50.3164 17.4702C50.638 17.9103 51.0824 18.1304 51.6494 18.1304C52.3942 18.1304 52.938 17.7961 53.2808 17.1274V13.9727C52.9295 13.3252 52.39 13.0015 51.6621 13.0015C51.0866 13.0015 50.638 13.2236 50.3164 13.668C49.9948 14.1123 49.834 14.7703 49.834 15.6421ZM65.3223 15.6421C65.3223 16.6916 65.0811 17.5358 64.5986 18.1748C64.1162 18.8096 63.4688 19.127 62.6562 19.127C61.7887 19.127 61.118 18.8201 60.644 18.2065L60.5869 19H59.5078V9.25H60.6821V12.8872C61.1561 12.299 61.8099 12.0049 62.6436 12.0049C63.4772 12.0049 64.131 12.3201 64.605 12.9507C65.0832 13.5812 65.3223 14.4445 65.3223 15.5405V15.6421ZM64.1479 15.5088C64.1479 14.709 63.9935 14.0911 63.6846 13.6553C63.3757 13.2194 62.9313 13.0015 62.3516 13.0015C61.5771 13.0015 61.0207 13.3612 60.6821 14.0806V17.0513C61.0418 17.7707 61.6025 18.1304 62.3643 18.1304C62.9271 18.1304 63.3651 17.9124 63.6782 17.4766C63.9914 17.0407 64.1479 16.3848 64.1479 15.5088ZM68.9785 17.2798L70.5781 12.1318H71.835L69.0737 20.0601C68.6463 21.2026 67.9671 21.7739 67.0361 21.7739L66.814 21.7549L66.376 21.6724V20.7202L66.6934 20.7456C67.0911 20.7456 67.4001 20.6652 67.6201 20.5044C67.8444 20.3436 68.0285 20.0495 68.1724 19.6221L68.4326 18.9238L65.9824 12.1318H67.2646L68.9785 17.2798Z" fill="#6B6B6E"/>
<defs>
<clipPath id="clip_kira_logo">
<rect width="48" height="48" fill="white" transform="translate(76)"/>
</clipPath>
</defs>
</svg>
