<svg width="70" height="72" viewBox="0 0 70 72" fill="none" xmlns="http://www.w3.org/2000/svg">
<path d="M63.5898 68.9188C64.1425 69.2335 64.8336 69.3913 65.6625 69.3913C66.5669 69.3913 67.2954 69.2087 67.8484 68.8428C68.4008 68.4774 68.8027 67.9576 69.0541 67.2833C69.3053 66.6093 69.431 65.8184 69.431 64.9111C69.431 64.2182 69.3432 63.6161 69.1674 63.106C68.9912 62.5956 68.74 62.1767 68.4137 61.849C68.0869 61.5214 67.6975 61.2819 67.2454 61.1307C67.9109 60.9417 68.4417 60.5572 68.8376 59.9775C69.2331 59.3981 69.431 58.6483 69.431 57.7283C69.431 56.9093 69.277 56.2069 68.9693 55.6207C68.6614 55.035 68.2156 54.5811 67.6315 54.2598C67.0474 53.9386 66.3342 53.7778 65.4929 53.7778C64.6638 53.7778 63.9601 53.9356 63.3826 54.2503C62.8047 54.5654 62.3651 55.013 62.0636 55.5926C61.7621 56.1723 61.6114 56.8717 61.6114 57.6907V58.2011H63.6275V57.7094C63.6774 57.0289 63.8472 56.4778 64.1363 56.0555C64.4251 55.6334 64.9024 55.4222 65.5683 55.4222C66.259 55.4222 66.7393 55.6336 67.0097 56.0555C67.2795 56.4779 67.4146 57.0356 67.4146 57.7285C67.4146 58.5349 67.2292 59.162 66.859 59.6093C66.4883 60.0567 65.8194 60.3119 64.8523 60.3748C64.8144 60.3748 64.7609 60.378 64.6921 60.3843C64.6228 60.3907 64.5536 60.3937 64.4846 60.3937H64.3056V62.0195H64.7109C64.7797 62.0195 64.8395 62.0261 64.89 62.0384C65.8699 62.1015 66.5355 62.3975 66.8872 62.9268C67.2388 63.456 67.4148 64.1176 67.4148 64.9115C67.4148 65.4663 67.3707 65.9543 67.2831 66.3764C67.1949 66.7987 67.0255 67.1263 66.7744 67.3593C66.5228 67.5928 66.1528 67.709 65.6627 67.709C64.9966 67.709 64.551 67.5011 64.3249 67.0853C64.0988 66.6694 63.9731 66.1339 63.948 65.4786C63.9352 65.4028 63.929 65.3177 63.929 65.2232V64.9493H61.9317V65.4595C61.9317 66.2662 62.0696 66.9656 62.3462 67.5578C62.6225 68.1502 63.0368 68.6039 63.5898 68.9188Z" fill="#0F3580"/>
<path fill-rule="evenodd" clip-rule="evenodd" d="M13.0931 69.2208V53.9102H16.5978C17.2885 53.9102 17.8885 53.9859 18.3972 54.1371C18.906 54.2883 19.3299 54.5215 19.6691 54.8364C20.0082 55.1515 20.2594 55.5517 20.4228 56.0367C20.5858 56.522 20.6677 57.0922 20.6677 57.7474C20.6677 58.3778 20.5891 58.9227 20.4322 59.3824C20.275 59.8427 20.0365 60.2047 19.7162 60.4693C19.3959 60.7337 18.9842 60.904 18.482 60.9797C19.0974 61.1184 19.5937 61.3547 19.9706 61.6885C20.3474 62.0225 20.6268 62.451 20.809 62.9738C20.9911 63.4969 21.0823 64.1238 21.0823 64.8546C21.0823 65.5099 21.0069 66.1086 20.8561 66.6503C20.7054 67.1922 20.4699 67.6521 20.1496 68.0302C19.8292 68.4082 19.4209 68.7012 18.9248 68.9089C18.4285 69.117 17.8414 69.2208 17.163 69.2208H13.0931ZM15.2223 60.2992H16.4847C17.0877 60.2992 17.5587 60.2141 17.8979 60.044C18.2371 59.8739 18.4756 59.5996 18.6139 59.2216C18.752 58.8435 18.8212 58.3521 18.8212 57.7472C18.8212 57.0418 18.7143 56.5312 18.5008 56.2161C18.2872 55.9012 17.9544 55.7027 17.5022 55.6207C17.05 55.5389 16.4593 55.498 15.731 55.498H15.2223V60.2992ZM15.2223 67.6901H16.6543C17.6087 67.6901 18.2465 67.4663 18.5668 67.0189C18.8871 66.5719 19.0473 65.8502 19.0473 64.8548C19.0473 64.2121 18.9625 63.6734 18.7929 63.2385C18.6233 62.8037 18.3531 62.4763 17.9827 62.2557C17.6121 62.0353 17.1127 61.925 16.4847 61.925H15.2223V67.6901Z" fill="#0F3580"/>
<path fill-rule="evenodd" clip-rule="evenodd" d="M0.299332 71.9998V67.6901H0.996501C1.20998 67.5136 1.42045 67.2996 1.62772 67.0474C1.83499 66.7955 2.02962 66.4647 2.21183 66.0551C2.39385 65.6456 2.56042 65.1164 2.71116 64.4673C2.86189 63.8184 2.9968 63.0024 3.11626 62.0196C3.23554 61.0367 3.32654 59.8459 3.38948 58.4471L3.63443 53.9106H10.022V67.6903H11.4917V72H9.8524L9.68282 69.2214H2.1082L1.93862 72L0.299332 71.9998ZM2.97476 67.6901H7.91145V55.4982H5.44311L5.29236 58.9573C5.24205 60.3183 5.16329 61.4618 5.05683 62.3879C4.95 63.3141 4.82432 64.0768 4.67999 64.6752C4.53547 65.2738 4.37211 65.7591 4.19009 66.1307C4.00789 66.5025 3.81324 66.8017 3.60598 67.0285C3.39871 67.2552 3.18824 67.476 2.97476 67.6901Z" fill="#0F3580"/>
<path d="M22.9663 53.9102V69.221H24.549L28.977 58.4468V69.221H30.8424V53.9102H29.3162L24.8505 64.5144V53.9102H22.9663Z" fill="#0F3580"/>
<path d="M33.2352 69.221V53.9102H41.6389V69.221H39.5097V55.4413H35.3644V69.221H33.2352Z" fill="#0F3580"/>
<path fill-rule="evenodd" clip-rule="evenodd" d="M44.013 53.9102V69.221H46.1424V62.0949H47.8194C48.6482 62.0949 49.339 61.9342 49.892 61.6129C50.4445 61.2915 50.8622 60.8351 51.1448 60.2425C51.4275 59.6503 51.5688 58.9509 51.5688 58.1443C51.5688 57.2495 51.4431 56.4874 51.1919 55.857C50.9406 55.227 50.5419 54.7451 49.9954 54.4111C49.449 54.0775 48.7172 53.9102 47.8003 53.9102H44.013ZM47.1218 60.564H46.142L46.1418 55.4413H47.1405C47.8565 55.4413 48.3841 55.5169 48.7232 55.6681C49.0624 55.8194 49.2853 56.0906 49.3921 56.4809C49.4988 56.8716 49.5525 57.4327 49.5525 58.1632C49.5525 58.7934 49.4771 59.2817 49.3264 59.6282C49.1756 59.9748 48.9241 60.2175 48.5727 60.3559C48.2209 60.4948 47.7372 60.564 47.1218 60.564Z" fill="#0F3580"/>
<path fill-rule="evenodd" clip-rule="evenodd" d="M52.2281 69.221L55.469 53.9102H57.5226L60.7823 69.221H58.7664L58.0692 65.365H54.9602L54.2254 69.221H52.2281ZM55.2428 63.8339H57.7866L56.5053 56.9346L55.2428 63.8339Z" fill="#0F3580"/>
<path d="M33.9473 43.9424L26.8151 40.8198V37.7479L31.4883 39.7939V34.0585L33.9474 35.1351L33.9473 43.9424Z" fill="#0F3580"/>
<path d="M40.726 38.8244L35.8054 40.9787V35.0599L40.726 32.9056V38.8244Z" fill="#0F3580"/>
<path d="M35.7455 29.0687L40.2998 27.0747V21.5963L35.7455 23.5903V29.0687Z" fill="#0F3580"/>
<path d="M27.5025 28.8719L33.9473 31.6935V23.7131L31.7496 22.7509V27.9737L27.5025 26.1143V28.8719Z" fill="#0F3580"/>
<path d="M33.9473 20.3527L28.5509 17.9901V15.7119L32.1482 17.2868V12.8457L33.9473 13.6334V20.3527Z" fill="#0F3580"/>
<path d="M39.6501 16.4995L35.6541 18.249V13.4423L39.6501 11.6928V16.4995Z" fill="#0F3580"/>
<path fill-rule="evenodd" clip-rule="evenodd" d="M0.425598 3.5733C22.7081 -4.70182 34.9069 8.14468 34.9069 8.14468C34.9069 8.14468 47.1057 -4.70182 69.388 3.5733L64.7333 50.3646C51.31 41.5407 36.6536 47.524 35 49.2322H34.8136C33.1601 47.524 19.5677 41.5407 5.08038 50.3646L0.425598 3.5733ZM25.7624 30.3993V41.5112L35.0001 45.5556L44.2377 41.5112V30.3993L35.0001 34.4437L25.7624 30.3993ZM35.0001 33.3049V23.02L43.5503 19.2765V29.5615L35.0001 33.3049ZM26.4498 29.5632V19.2783L34.9999 23.0217V33.3066L26.4498 29.5632ZM27.4982 9.65752V18.6814L35 21.9658V12.9419L27.4982 9.65752ZM35 12.9419V21.9658L42.5019 18.6814V9.65752L35 12.9419Z" fill="#0F3580"/>
</svg>
