<svg width="156" height="42" viewBox="0 0 156 42" fill="none" xmlns="http://www.w3.org/2000/svg">
<g clip-path="url(#clip0_28_2450)">
<path d="M147.649 22.1109C148.345 22.5081 149.214 22.7074 150.257 22.7074C151.396 22.7074 152.312 22.4769 153.008 22.015C153.704 21.5538 154.209 20.8977 154.526 20.0467C154.842 19.1959 155 18.1977 155 17.0525C155 16.1778 154.89 15.418 154.668 14.774C154.447 14.1298 154.13 13.6011 153.72 13.1874C153.309 12.774 152.818 12.4717 152.25 12.2808C153.087 12.0422 153.755 11.557 154.253 10.8253C154.751 10.094 155 9.14753 155 7.98636C155 6.95258 154.806 6.06602 154.419 5.32617C154.032 4.58681 153.471 4.01397 152.735 3.60838C152 3.20303 151.103 3 150.044 3C149.001 3 148.115 3.19921 147.388 3.59645C146.661 3.99417 146.108 4.55912 145.728 5.29061C145.349 6.02234 145.159 6.90511 145.159 7.93888V8.58306H147.697V7.9625C147.759 7.10361 147.973 6.4079 148.337 5.87491C148.7 5.34216 149.301 5.07565 150.139 5.07565C151.008 5.07565 151.613 5.34239 151.953 5.87491C152.293 6.40814 152.463 7.11196 152.463 7.9866C152.463 9.00439 152.229 9.796 151.763 10.3605C151.297 10.9252 150.455 11.2473 149.238 11.3268C149.19 11.3268 149.123 11.3308 149.036 11.3387C148.949 11.3468 148.862 11.3506 148.775 11.3506H148.55V13.4027H149.06C149.147 13.4027 149.222 13.411 149.285 13.4265C150.519 13.5062 151.356 13.8798 151.799 14.5478C152.241 15.2159 152.463 16.0509 152.463 17.053C152.463 17.7532 152.407 18.3692 152.297 18.902C152.186 19.435 151.973 19.8484 151.657 20.1426C151.34 20.4372 150.875 20.584 150.258 20.584C149.42 20.584 148.859 20.3215 148.574 19.7966C148.29 19.2718 148.131 18.5959 148.1 17.7687C148.084 17.673 148.076 17.5657 148.076 17.4464V17.1007H145.562V17.7446C145.562 18.7629 145.736 19.6456 146.084 20.3931C146.432 21.1408 146.953 21.7134 147.649 22.1109Z" fill="#0F3580"/>
<path fill-rule="evenodd" clip-rule="evenodd" d="M84.1006 22.4921V3.16721H88.5111C89.3804 3.16721 90.1354 3.26265 90.7756 3.45351C91.4159 3.64438 91.9494 3.93878 92.3762 4.33625C92.803 4.73397 93.1191 5.23906 93.3247 5.85126C93.5298 6.4637 93.633 7.1835 93.633 8.01043C93.633 8.8061 93.5341 9.49394 93.3366 10.0742C93.1388 10.6551 92.8386 11.112 92.4355 11.446C92.0324 11.7798 91.5143 11.9947 90.8823 12.0902C91.6568 12.2653 92.2814 12.5635 92.7556 12.9849C93.2299 13.4064 93.5815 13.9473 93.8108 14.6072C94.0399 15.2674 94.1547 16.0588 94.1547 16.9811C94.1547 17.8083 94.0598 18.5639 93.8701 19.2477C93.6804 19.9317 93.384 20.5121 92.9809 20.9893C92.5778 21.4665 92.0639 21.8363 91.4396 22.0985C90.815 22.3612 90.0761 22.4921 89.2225 22.4921H84.1006ZM86.7801 11.2313H88.3688C89.1276 11.2313 89.7204 11.1239 90.1472 10.9092C90.5741 10.6945 90.8743 10.3483 91.0483 9.87113C91.2221 9.39397 91.3092 8.77366 91.3092 8.0102C91.3092 7.11981 91.1747 6.47539 90.906 6.07767C90.6371 5.68019 90.2184 5.42969 89.6493 5.32614C89.0802 5.22284 88.3368 5.17129 87.4203 5.17129H86.7801V11.2313ZM86.7801 20.5601H88.5822C89.7833 20.5601 90.5859 20.2776 90.989 19.7129C91.3922 19.1486 91.5937 18.2377 91.5937 16.9814C91.5937 16.1702 91.487 15.4902 91.2736 14.9412C91.0602 14.3925 90.7201 13.9793 90.254 13.7009C89.7875 13.4227 89.1591 13.2833 88.3688 13.2833H86.7801V20.5601Z" fill="#0F3580"/>
<path fill-rule="evenodd" clip-rule="evenodd" d="M68 25.9998V20.5601H68.8774C69.146 20.3373 69.4109 20.0672 69.6717 19.7489C69.9326 19.4309 70.1775 19.0134 70.4068 18.4964C70.6359 17.9796 70.8455 17.3116 71.0352 16.4923C71.2249 15.6732 71.3947 14.6433 71.545 13.4029C71.6951 12.1622 71.8096 10.6592 71.8888 8.89367L72.1971 3.1677H80.2357V20.5603H82.0852V26H80.0222L79.8088 22.4929H70.2764L70.063 26L68 25.9998ZM71.3669 20.5601H77.5796V5.17154H74.4733L74.2836 9.5376C74.2203 11.2554 74.1211 12.6988 73.9872 13.8676C73.8527 15.0367 73.6946 15.9994 73.5129 16.7547C73.331 17.5103 73.1255 18.1227 72.8964 18.5918C72.6671 19.0611 72.4221 19.4388 72.1613 19.7251C71.9005 20.0111 71.6356 20.2898 71.3669 20.5601Z" fill="#0F3580"/>
<path d="M96.5257 3.16721V22.4924H98.5175L104.09 8.89319V22.4924H106.437V3.16721H104.517L98.8969 16.5517V3.16721H96.5257Z" fill="#0F3580"/>
<path d="M109.449 22.4924V3.16721H120.025V22.4924H117.345V5.09972H112.128V22.4924H109.449Z" fill="#0F3580"/>
<path fill-rule="evenodd" clip-rule="evenodd" d="M123.012 3.16721V22.4924H125.692V13.4978H127.802C128.846 13.4978 129.715 13.295 130.411 12.8894C131.106 12.4839 131.632 11.9077 131.987 11.1597C132.343 10.4122 132.521 9.52948 132.521 8.51145C132.521 7.382 132.363 6.42004 132.047 5.62437C131.73 4.82918 131.229 4.22102 130.541 3.79944C129.853 3.37835 128.932 3.16721 127.779 3.16721H123.012ZM126.925 11.5655H125.692L125.691 5.09972H126.948C127.849 5.09972 128.513 5.19516 128.94 5.38602C129.367 5.57689 129.647 5.91925 129.782 6.41192C129.916 6.90507 129.984 7.61319 129.984 8.53531C129.984 9.33075 129.889 9.947 129.699 10.3843C129.509 10.8219 129.193 11.1282 128.75 11.3029C128.308 11.4782 127.699 11.5655 126.925 11.5655Z" fill="#0F3580"/>
<path fill-rule="evenodd" clip-rule="evenodd" d="M133.351 22.4924L137.429 3.16721H140.014L144.116 22.4924H141.579L140.702 17.6253H136.789L135.864 22.4924H133.351ZM137.145 15.6928H140.346L138.733 6.98453L137.145 15.6928Z" fill="#0F3580"/>
<path d="M73.1169 31.1797V32.0283H69.5397V31.1797H73.1169ZM74.0085 31.1797V39H72.9719V31.1797H74.0085ZM69.1852 31.1797H70.2165L70.0392 35.0093C70.0142 35.5607 69.9712 36.0531 69.9103 36.4863C69.853 36.916 69.7707 37.2902 69.6633 37.6089C69.5558 37.924 69.4162 38.1854 69.2443 38.3931C69.0724 38.5972 68.8612 38.7493 68.6105 38.8496C68.3635 38.9499 68.0663 39 67.7189 39H67.4396V38.1567L67.6545 38.1406C67.855 38.1263 68.0269 38.0815 68.1701 38.0063C68.3169 37.9276 68.4404 37.8094 68.5407 37.6519C68.6445 37.4943 68.7287 37.2902 68.7931 37.0396C68.8576 36.7889 68.9077 36.4827 68.9435 36.1211C68.9829 35.7559 69.0134 35.3298 69.0348 34.8428L69.1852 31.1797ZM77.0214 37.4263L79.7016 33.1885H80.7006V39H79.7016V34.7622L77.0214 39H76.0332V33.1885H77.0214V37.4263ZM86.8987 33.1885V39H85.905V33.1885H86.8987ZM86.5603 35.8579V36.6743C86.3598 36.7495 86.1557 36.8175 85.948 36.8784C85.7439 36.9357 85.5273 36.9823 85.2981 37.0181C85.0725 37.0503 84.8272 37.0664 84.5622 37.0664C84.1039 37.0664 83.7065 36.9876 83.3699 36.8301C83.0333 36.6689 82.7737 36.4272 82.5911 36.105C82.4084 35.7791 82.3171 35.3691 82.3171 34.875V33.1777H83.3108V34.875C83.3108 35.1973 83.3591 35.4587 83.4558 35.6592C83.5525 35.8597 83.6939 36.0083 83.8801 36.105C84.0663 36.1981 84.2937 36.2446 84.5622 36.2446C84.8201 36.2446 85.0618 36.2285 85.2873 36.1963C85.5165 36.1605 85.7349 36.1139 85.9426 36.0566C86.1539 35.9993 86.3598 35.9331 86.5603 35.8579ZM92.6616 35.7075V36.5132H89.5894V35.7075H92.6616ZM89.7988 33.1885V39H88.8052V33.1885H89.7988ZM93.4673 33.1885V39H92.4683V33.1885H93.4673ZM96.1043 35.1865H97.8499C98.319 35.1865 98.7146 35.2689 99.0369 35.4336C99.3592 35.5947 99.6027 35.8185 99.7674 36.105C99.9357 36.3879 100.02 36.7101 100.02 37.0718C100.02 37.3403 99.9733 37.5928 99.8802 37.8291C99.7871 38.0618 99.6474 38.266 99.4612 38.4414C99.2786 38.6169 99.0512 38.7547 98.7791 38.855C98.5105 38.9517 98.2008 39 97.8499 39H95.3792V33.1885H96.3729V38.1836H97.8499C98.1364 38.1836 98.3655 38.1317 98.5374 38.0278C98.7093 37.924 98.8328 37.7897 98.908 37.625C98.9832 37.4603 99.0208 37.2884 99.0208 37.1094C99.0208 36.9339 98.9832 36.762 98.908 36.5938C98.8328 36.4255 98.7093 36.2858 98.5374 36.1748C98.3655 36.0602 98.1364 36.0029 97.8499 36.0029H96.1043V35.1865ZM102.088 33.1885V39H101.094V33.1885H102.088ZM105.122 37.4263L107.802 33.1885H108.801V39H107.802V34.7622L105.122 39H104.134V33.1885H105.122V37.4263ZM107.26 31.083H108.066C108.066 31.3623 108.001 31.6112 107.872 31.8296C107.743 32.0444 107.559 32.2127 107.319 32.3345C107.079 32.4562 106.794 32.5171 106.465 32.5171C105.967 32.5171 105.573 32.3846 105.283 32.1196C104.997 31.8511 104.854 31.5055 104.854 31.083H105.659C105.659 31.2943 105.72 31.4805 105.842 31.6416C105.964 31.8027 106.171 31.8833 106.465 31.8833C106.751 31.8833 106.955 31.8027 107.077 31.6416C107.199 31.4805 107.26 31.2943 107.26 31.083ZM114.645 33.1885V39H113.651V33.1885H114.645ZM118.458 33.1885L115.703 36.5186H114.312L114.161 35.6484H115.3L117.25 33.1885H118.458ZM117.389 39L115.252 36.3682L115.891 35.6484L118.652 39H117.389ZM123.163 38.0063V35.0146C123.163 34.7855 123.116 34.5868 123.023 34.4185C122.934 34.2466 122.798 34.1141 122.615 34.021C122.433 33.9279 122.207 33.8813 121.938 33.8813C121.688 33.8813 121.468 33.9243 121.278 34.0103C121.092 34.0962 120.945 34.209 120.837 34.3486C120.733 34.4883 120.682 34.6387 120.682 34.7998H119.688C119.688 34.5921 119.742 34.3862 119.849 34.1821C119.956 33.978 120.11 33.7936 120.311 33.6289C120.515 33.4606 120.759 33.3281 121.041 33.2314C121.328 33.1312 121.647 33.0811 121.997 33.0811C122.42 33.0811 122.792 33.1527 123.115 33.2959C123.441 33.4391 123.695 33.6558 123.877 33.9458C124.064 34.2323 124.157 34.5921 124.157 35.0254V37.7324C124.157 37.9258 124.173 38.1317 124.205 38.3501C124.241 38.5685 124.293 38.7565 124.361 38.9141V39H123.324C123.274 38.8854 123.235 38.7332 123.206 38.5435C123.177 38.3501 123.163 38.1711 123.163 38.0063ZM123.335 35.4766L123.346 36.1748H122.341C122.058 36.1748 121.806 36.1981 121.584 36.2446C121.362 36.2876 121.176 36.3538 121.025 36.4434C120.875 36.5329 120.76 36.6457 120.682 36.7817C120.603 36.9142 120.563 37.07 120.563 37.249C120.563 37.4316 120.605 37.5981 120.687 37.7485C120.769 37.8989 120.893 38.0189 121.058 38.1084C121.226 38.1943 121.432 38.2373 121.675 38.2373C121.98 38.2373 122.248 38.1729 122.481 38.0439C122.714 37.915 122.898 37.7575 123.034 37.5713C123.174 37.3851 123.249 37.2043 123.26 37.0288L123.684 37.5068C123.659 37.6572 123.591 37.8237 123.48 38.0063C123.369 38.189 123.22 38.3644 123.034 38.5327C122.851 38.6974 122.633 38.8353 122.379 38.9463C122.128 39.0537 121.845 39.1074 121.53 39.1074C121.136 39.1074 120.791 39.0304 120.494 38.8765C120.2 38.7225 119.971 38.5166 119.806 38.2588C119.645 37.9974 119.564 37.7056 119.564 37.3833C119.564 37.0718 119.625 36.7979 119.747 36.5615C119.869 36.3216 120.044 36.1229 120.273 35.9653C120.503 35.8042 120.778 35.6825 121.101 35.6001C121.423 35.5177 121.783 35.4766 122.18 35.4766H123.335ZM129.667 30.6587H130.484C130.484 31.0096 130.43 31.2889 130.322 31.4966C130.215 31.7007 130.068 31.8582 129.882 31.9692C129.699 32.0802 129.492 32.1644 129.259 32.2217C129.03 32.279 128.792 32.3345 128.545 32.3882C128.237 32.4526 127.95 32.5547 127.685 32.6943C127.424 32.8304 127.198 33.0238 127.008 33.2744C126.822 33.5251 126.684 33.8509 126.595 34.252C126.509 34.653 126.486 35.1489 126.525 35.7397V36.2339H125.709V35.7397C125.709 35.0773 125.771 34.499 125.897 34.0049C126.026 33.5107 126.206 33.0936 126.439 32.7534C126.672 32.4132 126.948 32.1429 127.266 31.9424C127.589 31.7419 127.943 31.604 128.33 31.5288C128.609 31.4751 128.849 31.4178 129.05 31.3569C129.25 31.2925 129.402 31.2065 129.506 31.0991C129.613 30.9917 129.667 30.8449 129.667 30.6587ZM128.491 33.5215C128.87 33.5215 129.209 33.5877 129.506 33.7202C129.803 33.8527 130.056 34.0371 130.263 34.2734C130.471 34.5098 130.629 34.7891 130.736 35.1113C130.847 35.43 130.903 35.7773 130.903 36.1533V36.2715C130.903 36.6761 130.843 37.0521 130.725 37.3994C130.611 37.7432 130.441 38.0439 130.215 38.3018C129.993 38.556 129.721 38.7547 129.399 38.8979C129.08 39.0412 128.717 39.1128 128.308 39.1128C127.9 39.1128 127.535 39.0412 127.213 38.8979C126.894 38.7547 126.622 38.556 126.396 38.3018C126.171 38.0439 125.999 37.7432 125.881 37.3994C125.766 37.0521 125.709 36.6761 125.709 36.2715V36.1533C125.709 36.0638 125.725 35.9761 125.757 35.8901C125.789 35.8042 125.829 35.7165 125.875 35.627C125.925 35.5374 125.97 35.4425 126.009 35.3423C126.142 35.02 126.323 34.721 126.552 34.4453C126.785 34.1696 127.062 33.9476 127.384 33.7793C127.71 33.6074 128.079 33.5215 128.491 33.5215ZM128.298 34.3325C127.932 34.3325 127.632 34.4167 127.395 34.585C127.162 34.7533 126.989 34.9771 126.874 35.2563C126.76 35.5321 126.702 35.8311 126.702 36.1533V36.2715C126.702 36.5436 126.735 36.8014 126.799 37.0449C126.863 37.2884 126.96 37.505 127.089 37.6948C127.222 37.881 127.388 38.0278 127.589 38.1353C127.793 38.2427 128.033 38.2964 128.308 38.2964C128.584 38.2964 128.822 38.2427 129.023 38.1353C129.223 38.0278 129.388 37.881 129.517 37.6948C129.646 37.505 129.742 37.2884 129.807 37.0449C129.871 36.8014 129.904 36.5436 129.904 36.2715V36.1533C129.904 35.9098 129.871 35.6789 129.807 35.4604C129.742 35.242 129.644 35.0487 129.511 34.8804C129.383 34.7121 129.216 34.5796 129.012 34.4829C128.811 34.3826 128.573 34.3325 128.298 34.3325ZM133.228 37.4263L135.908 33.1885H136.907V39H135.908V34.7622L133.228 39H132.24V33.1885H133.228V37.4263ZM142.665 35.7075V36.5132H139.593V35.7075H142.665ZM139.802 33.1885V39H138.808V33.1885H139.802ZM143.47 33.1885V39H142.471V33.1885H143.47ZM147.703 39.1074C147.298 39.1074 146.931 39.0394 146.602 38.9033C146.276 38.7637 145.995 38.5685 145.758 38.3179C145.526 38.0672 145.347 37.77 145.221 37.4263C145.096 37.0825 145.033 36.7065 145.033 36.2983V36.0728C145.033 35.6001 145.103 35.1794 145.243 34.8105C145.382 34.4382 145.572 34.123 145.812 33.8652C146.052 33.6074 146.324 33.4123 146.628 33.2798C146.933 33.1473 147.248 33.0811 147.574 33.0811C147.989 33.0811 148.347 33.1527 148.648 33.2959C148.952 33.4391 149.201 33.6396 149.395 33.8975C149.588 34.1517 149.731 34.4525 149.824 34.7998C149.917 35.1436 149.964 35.5195 149.964 35.9277V36.3735H145.624V35.5625H148.97V35.4873C148.956 35.2295 148.902 34.9788 148.809 34.7354C148.72 34.4919 148.576 34.2913 148.379 34.1338C148.182 33.9762 147.914 33.8975 147.574 33.8975C147.348 33.8975 147.141 33.9458 146.951 34.0425C146.761 34.1356 146.598 34.2752 146.462 34.4614C146.326 34.6476 146.22 34.875 146.145 35.1436C146.07 35.4121 146.032 35.7218 146.032 36.0728V36.2983C146.032 36.5741 146.07 36.8337 146.145 37.0771C146.224 37.3171 146.337 37.5283 146.483 37.7109C146.634 37.8936 146.815 38.0368 147.026 38.1406C147.241 38.2445 147.484 38.2964 147.756 38.2964C148.107 38.2964 148.404 38.2248 148.648 38.0815C148.891 37.9383 149.105 37.7467 149.287 37.5068L149.889 37.9849C149.763 38.1746 149.604 38.3555 149.411 38.5273C149.217 38.6992 148.979 38.8389 148.696 38.9463C148.417 39.0537 148.086 39.1074 147.703 39.1074ZM153.648 33.1885V39H152.649V33.1885H153.648ZM155.598 33.1885V33.9941H150.737V33.1885H155.598Z" fill="#2F3040" fill-opacity="0.6"/>
<path d="M27.2209 34.8177L21.4292 32.2979V29.819L25.2241 31.47V26.8419L27.2209 27.7106L27.2209 34.8177Z" fill="#0F3580"/>
<path d="M32.7254 30.6877L28.7297 32.4261V27.65L32.7254 25.9116V30.6877Z" fill="#0F3580"/>
<path d="M28.681 22.8154L32.3793 21.2063V16.7856L28.681 18.3946V22.8154Z" fill="#0F3580"/>
<path d="M21.9874 22.6566L27.2208 24.9334V18.4937L25.4362 17.7173V21.9318L21.9874 20.4313V22.6566Z" fill="#0F3580"/>
<path d="M27.2209 15.782L22.8388 13.8755V12.0371L25.7599 13.3081V9.72431L27.2209 10.36V15.782Z" fill="#0F3580"/>
<path d="M31.8517 12.6727L28.6069 14.0845V10.2057L31.8517 8.79399V12.6727Z" fill="#0F3580"/>
<path fill-rule="evenodd" clip-rule="evenodd" d="M0 2.24198C18.0942 -4.4356 28 5.93083 28 5.93083C28 5.93083 37.906 -4.4356 56 2.24198L52.2201 40C41.32 32.8797 29.4184 37.7078 28.0757 39.0862H27.9243C26.5816 37.7078 15.5441 32.8796 3.77985 40L0 2.24198ZM20.5744 23.8891V32.8558L28.0757 36.1194L35.577 32.8558V23.8891L28.0757 27.1527L20.5744 23.8891ZM28.0757 26.2338V17.9344L35.0188 14.9136V23.213L28.0757 26.2338ZM21.1326 23.2144V14.915L28.0756 17.9358V26.2352L21.1326 23.2144ZM21.9839 7.15161V14.4334L28.0757 17.0837V9.80193L21.9839 7.15161ZM28.0757 9.80193V17.0837L34.1675 14.4334V7.15161L28.0757 9.80193Z" fill="#0F3580"/>
</g>
<defs>
<clipPath id="clip0_28_2450">
<rect width="156" height="42" fill="white"/>
</clipPath>
</defs>
</svg>
