<svg width="33" height="32" viewBox="0 0 33 32" fill="none" xmlns="http://www.w3.org/2000/svg">
<path d="M14.2321 5.96658C15.4761 3.90354 17.7425 2.63327 20.196 2.63327H28.3904C28.5665 2.63327 28.6398 2.80726 28.571 2.92125L28.9992 3.17945L28.571 2.92125L15.6792 24.3C14.4351 26.363 12.1687 27.6333 9.71522 27.6333H1.52078C1.34468 27.6333 1.27144 27.4593 1.34018 27.3453L14.2321 5.96658ZM31.7517 17.1933C32.0708 17.1933 32.3125 17.4443 32.3125 17.7333V23.2799C32.3125 26.6322 29.5378 29.3666 26.0941 29.3666H21.8508C21.5317 29.3666 21.29 29.1155 21.29 28.8266V23.2799C21.29 19.9277 24.0647 17.1933 27.5085 17.1933H31.7517Z" stroke="#6B6B6E"/>
</svg>
