<svg width="121" height="124" viewBox="0 0 121 124" fill="none" xmlns="http://www.w3.org/2000/svg">
<path d="M109.92 118.693C110.875 119.235 112.07 119.507 113.502 119.507C115.066 119.507 116.325 119.193 117.281 118.562C118.236 117.933 118.931 117.038 119.365 115.877C119.799 114.716 120.016 113.354 120.016 111.791C120.016 110.598 119.865 109.561 119.561 108.682C119.256 107.803 118.822 107.082 118.258 106.518C117.693 105.953 117.02 105.541 116.239 105.281C117.389 104.955 118.306 104.293 118.991 103.294C119.674 102.297 120.016 101.005 120.016 99.4209C120.016 98.0103 119.75 96.8007 119.218 95.7912C118.686 94.7823 117.916 94.0007 116.906 93.4473C115.896 92.8942 114.663 92.6172 113.209 92.6172C111.776 92.6172 110.56 92.889 109.561 93.431C108.562 93.9737 107.803 94.7446 107.281 95.7427C106.76 96.7411 106.5 97.9456 106.5 99.3561V100.235H109.985V99.3884C110.071 98.2164 110.365 97.2672 110.864 96.5399C111.363 95.813 112.188 95.4493 113.339 95.4493C114.534 95.4493 115.364 95.8133 115.831 96.5399C116.298 97.2675 116.531 98.2278 116.531 99.4212C116.531 100.81 116.211 101.89 115.571 102.66C114.93 103.431 113.774 103.87 112.102 103.979C112.036 103.979 111.944 103.984 111.825 103.995C111.705 104.006 111.586 104.011 111.466 104.011H111.157V106.811H111.858C111.976 106.811 112.08 106.823 112.167 106.844C113.861 106.953 115.011 107.462 115.619 108.374C116.227 109.285 116.531 110.425 116.531 111.792C116.531 112.747 116.455 113.588 116.304 114.315C116.151 115.042 115.858 115.606 115.424 116.008C114.989 116.41 114.35 116.61 113.503 116.61C112.351 116.61 111.581 116.252 111.19 115.536C110.799 114.819 110.582 113.897 110.539 112.769C110.517 112.638 110.506 112.492 110.506 112.329V111.857H107.053V112.736C107.053 114.125 107.292 115.33 107.77 116.349C108.247 117.37 108.964 118.151 109.92 118.693Z" fill="#2F3040" fill-opacity="0.3"/>
<path fill-rule="evenodd" clip-rule="evenodd" d="M22.6324 119.214V92.8453H28.6905C29.8845 92.8453 30.9215 92.9756 31.8009 93.236C32.6803 93.4964 33.4132 93.8981 33.9994 94.4405C34.5857 94.9831 35.0199 95.6723 35.3023 96.5076C35.584 97.3433 35.7257 98.3254 35.7257 99.4537C35.7257 100.539 35.5898 101.478 35.3185 102.27C35.0469 103.062 34.6346 103.686 34.0809 104.141C33.5272 104.597 32.8155 104.89 31.9475 105.02C33.0113 105.259 33.8692 105.666 34.5206 106.241C35.172 106.816 35.655 107.554 35.9699 108.455C36.2846 109.356 36.4422 110.435 36.4422 111.694C36.4422 112.823 36.3119 113.854 36.0514 114.787C35.7908 115.72 35.3837 116.512 34.83 117.163C34.2763 117.814 33.5705 118.319 32.7129 118.676C31.855 119.035 30.8401 119.214 29.6676 119.214H22.6324ZM26.3128 103.848H28.4951C29.5373 103.848 30.3516 103.702 30.9378 103.409C31.5241 103.116 31.9364 102.644 32.1755 101.993C32.4142 101.342 32.5338 100.495 32.5338 99.4534C32.5338 98.2385 32.3491 97.3592 31.9801 96.8166C31.6107 96.2742 31.0355 95.9324 30.2539 95.7911C29.4722 95.6502 28.4511 95.5798 27.1922 95.5798H26.3128V103.848ZM26.3128 116.577H28.7882C30.4379 116.577 31.5404 116.192 32.0941 115.421C32.6478 114.651 32.9246 113.409 32.9246 111.694C32.9246 110.587 32.7781 109.66 32.4849 108.911C32.1918 108.162 31.7247 107.598 31.0844 107.218C30.4437 106.839 29.5806 106.648 28.4951 106.648H26.3128V116.577Z" fill="#2F3040" fill-opacity="0.3"/>
<path fill-rule="evenodd" clip-rule="evenodd" d="M0.517456 124V116.577H1.72256C2.09158 116.273 2.4554 115.905 2.81367 115.47C3.17194 115.037 3.50839 114.467 3.82334 113.761C4.13797 113.056 4.4259 112.145 4.68647 111.027C4.94703 109.909 5.18023 108.504 5.38673 106.812C5.5929 105.119 5.7502 103.068 5.85899 100.659L6.28241 92.846H17.3238V116.578H19.8642V124H17.0306L16.7375 119.215H3.64421L3.35108 124L0.517456 124ZM5.14212 116.577H13.6756V95.5802H9.40884L9.14827 101.538C9.06131 103.881 8.92516 105.851 8.74114 107.446C8.55647 109.041 8.33922 110.354 8.08973 111.385C7.83992 112.416 7.55754 113.252 7.24291 113.892C6.92796 114.532 6.5915 115.047 6.23323 115.438C5.87495 115.828 5.51114 116.208 5.14212 116.577Z" fill="#2F3040" fill-opacity="0.3"/>
<path d="M39.6989 92.8453V119.214H42.4348L50.0888 100.658V119.214H53.3133V92.8453H50.6751L42.956 111.108V92.8453H39.6989Z" fill="#2F3040" fill-opacity="0.3"/>
<path d="M57.4494 119.214V92.8453H71.9758V119.214H68.2953V95.4822H61.1299V119.214H57.4494Z" fill="#2F3040" fill-opacity="0.3"/>
<path fill-rule="evenodd" clip-rule="evenodd" d="M76.0797 92.8453V119.214H79.7604V106.941H82.6592C84.092 106.941 85.286 106.664 86.2419 106.111C87.1969 105.558 87.919 104.771 88.4075 103.751C88.8961 102.731 89.1404 101.526 89.1404 100.137C89.1404 98.5963 88.9231 97.2837 88.489 96.1981C88.0545 95.113 87.3653 94.2832 86.4207 93.708C85.4762 93.1334 84.2112 92.8453 82.6263 92.8453H76.0797ZM81.4534 104.305H79.7598L79.7595 95.4822H81.4857C82.7234 95.4822 83.6353 95.6124 84.2216 95.8728C84.8079 96.1333 85.1932 96.6004 85.3778 97.2726C85.5622 97.9455 85.655 98.9117 85.655 100.17C85.655 101.255 85.5247 102.096 85.2642 102.693C85.0036 103.29 84.5688 103.708 83.9614 103.946C83.3533 104.185 82.5172 104.305 81.4534 104.305Z" fill="#2F3040" fill-opacity="0.3"/>
<path fill-rule="evenodd" clip-rule="evenodd" d="M90.28 119.214L95.8821 92.8453H99.4319L105.067 119.214H101.582L100.377 112.573H95.0027L93.7325 119.214H90.28ZM95.4912 109.936H99.8882L97.6735 98.0539L95.4912 109.936Z" fill="#2F3040" fill-opacity="0.3"/>
<path d="M58.6804 75.6787L46.3519 70.3008V65.0102L54.4299 68.534V58.6564L58.6806 60.5105L58.6804 75.6787Z" fill="#2F3040" fill-opacity="0.3"/>
<path d="M70.3979 66.8644L61.8923 70.5745V60.381L70.3979 56.6709V66.8644Z" fill="#2F3040" fill-opacity="0.3"/>
<path d="M61.7887 50.0628L69.6612 46.6287V37.1937L61.7887 40.6278V50.0628Z" fill="#2F3040" fill-opacity="0.3"/>
<path d="M47.54 49.7238L58.6803 54.5833V40.8393L54.8814 39.1822V48.1771L47.54 44.9747V49.7238Z" fill="#2F3040" fill-opacity="0.3"/>
<path d="M58.6804 35.0519L49.3523 30.983V27.0594L55.5705 29.7719V22.1232L58.6804 23.4798V35.0519Z" fill="#2F3040" fill-opacity="0.3"/>
<path d="M68.538 28.4159L61.6308 31.4289V23.1507L68.538 20.1377V28.4159Z" fill="#2F3040" fill-opacity="0.3"/>
<path fill-rule="evenodd" clip-rule="evenodd" d="M0.735718 6.15408C39.2526 -8.09752 60.3391 14.027 60.3391 14.027C60.3391 14.027 81.4257 -8.09752 119.942 6.15408L111.896 86.739C88.6931 71.5424 63.3583 81.8469 60.5 84.7888H60.1779C57.3196 81.8469 33.8242 71.5423 8.78184 86.739L0.735718 6.15408ZM44.5322 52.3545V71.4915L60.5002 78.4569L76.4681 71.4915V52.3545L60.5002 59.3198L44.5322 52.3545ZM60.5002 57.3585V39.6456L75.2798 33.1986V50.9115L60.5002 57.3585ZM45.7204 50.9144V33.2015L60.4999 39.6485V57.3614L45.7204 50.9144ZM47.5327 16.6324V32.1735L60.5001 37.83V22.2889L47.5327 16.6324ZM60.5001 22.2889V37.83L73.4676 32.1735V16.6324L60.5001 22.2889Z" fill="#2F3040" fill-opacity="0.3"/>
</svg>
