<svg width="16" height="16" viewBox="0 0 16 16" fill="none" xmlns="http://www.w3.org/2000/svg">
<path fill-rule="evenodd" clip-rule="evenodd" d="M2.5 3C1.11929 3 0 4.11929 0 5.5V10.5C0 11.8807 1.11929 13 2.5 13H13.5C14.8807 13 16 11.8807 16 10.5V5.5C16 4.11929 14.8807 3 13.5 3H2.5ZM2.90266 4.86723C2.5532 4.64485 2.08964 4.74786 1.86726 5.09732C1.64488 5.44677 1.74789 5.91034 2.09735 6.13272L8 9.88895L13.9027 6.13272C14.2521 5.91034 14.3551 5.44677 14.1327 5.09732C13.9104 4.74786 13.4468 4.64485 13.0973 4.86723L8 8.11099L2.90266 4.86723Z" fill="black"/>
</svg>
