<svg width="16" height="20" viewBox="0 0 16 20" fill="none" xmlns="http://www.w3.org/2000/svg">
<path d="M6 7.59998C6 8.70398 6.896 9.59998 8 9.59998C9.104 9.59998 10 8.70398 10 7.59998C10 6.49598 9.104 5.59998 8 5.59998C6.896 5.59998 6 6.49598 6 7.59998Z" fill="#2F3040" fill-opacity="0.6"/>
<path fill-rule="evenodd" clip-rule="evenodd" d="M8.00002 2C4.90462 2 2.40002 4.50459 2.40002 7.6C2.40002 10.8794 5.81316 15.377 7.31018 17.192C7.53039 17.459 7.64049 17.5925 7.79291 17.6485C7.91965 17.6952 8.08039 17.6952 8.20714 17.6485C8.35956 17.5925 8.46966 17.459 8.68987 17.192C10.1869 15.377 13.6 10.8794 13.6 7.6C13.6 4.50462 11.0966 2 8.00002 2ZM3.90002 7.6C3.90002 5.33302 5.73305 3.5 8.00002 3.5C10.268 3.5 12.1 5.33283 12.1 7.6C12.1 8.81075 11.4342 10.4567 10.4148 12.1822C9.62127 13.5256 8.70499 14.7677 8.00002 15.6589C7.29506 14.7677 6.37878 13.5256 5.5852 12.1822C4.56586 10.4567 3.90002 8.81075 3.90002 7.6Z" fill="#2F3040" fill-opacity="0.6"/>
</svg>
