<svg width="20" height="20" viewBox="0 0 20 20" fill="none" xmlns="http://www.w3.org/2000/svg">
<path fill-rule="evenodd" clip-rule="evenodd" d="M18.777 12C18.9229 11.3568 19 10.6874 19 10C19 9.31261 18.9229 8.64322 18.777 8H20V12H18.777ZM1.22302 12H0V8H1.22302C1.07706 8.64322 1 9.31261 1 10C1 10.6874 1.07706 11.3568 1.22302 12Z" fill="black"/>
<path fill-rule="evenodd" clip-rule="evenodd" d="M18 10C18 14.4183 14.4183 18 10 18C5.58172 18 2 14.4183 2 10C2 5.58172 5.58172 2 10 2C14.4183 2 18 5.58172 18 10ZM9 12C9 13.1046 8.10457 14 7 14C5.89543 14 5 13.1046 5 12C5 10.8954 5.89543 10 7 10C8.10457 10 9 10.8954 9 12ZM6 6C5.44772 6 5 6.44772 5 7V8C5 8.55228 5.44772 9 6 9H14C14.5523 9 15 8.55228 15 8V7C15 6.44772 14.5523 6 14 6H6Z" fill="black"/>
</svg>
