<svg width="40" height="40" viewBox="0 0 40 40" fill="none" xmlns="http://www.w3.org/2000/svg">
<path fill-rule="evenodd" clip-rule="evenodd" d="M13.3333 15V25H20V15H13.3333ZM18 17H15.3333V23H18V17Z" fill="black"/>
<path d="M33.3333 10.8333H13.3333V12.5H33.3333V10.8333Z" fill="black"/>
<path d="M13.3333 27.5H33.3333V29.1667H13.3333V27.5Z" fill="black"/>
<path d="M33.3333 23.3333H21.6667V25H33.3333V23.3333Z" fill="black"/>
<path d="M21.6667 15H33.3333V16.6667H21.6667V15Z" fill="black"/>
<path d="M33.3333 19.1667H21.6667V20.8333H33.3333V19.1667Z" fill="black"/>
<path fill-rule="evenodd" clip-rule="evenodd" d="M38.25 5.91667H8.41668V12.5833H4.5C4.44221 12.5833 4.38484 12.5851 4.32793 12.5886C4.27463 12.5851 4.22086 12.5833 4.16667 12.5833V12.6033C2.80508 12.7678 1.75 13.9274 1.75 15.3333V31.6667C1.75 33.9218 3.57817 35.75 5.83334 35.75H33.5C36.1234 35.75 38.25 33.6234 38.25 31V5.91667ZM4.32031 14.0961C3.71509 14.1833 3.25 14.704 3.25 15.3333V31.6667C3.25 33.0934 4.4066 34.25 5.83333 34.25C7.26007 34.25 8.41667 33.0934 8.41667 31.6667V31.5833H5.08333V15C5.08333 14.5461 4.75342 14.1692 4.32031 14.0961ZM8.41667 30.0833V14.0833H6.40342C6.51939 14.366 6.58333 14.6755 6.58333 15V30.0833H8.41667ZM9.91668 7.41667H36.75V31C36.75 32.7949 35.2949 34.25 33.5 34.25H8.99576C9.57136 33.5462 9.91667 32.6468 9.91667 31.6667L9.91668 7.41667Z" fill="black"/>
</svg>
