<svg width="20" height="20" viewBox="0 0 20 20" fill="none" xmlns="http://www.w3.org/2000/svg">
<path d="M7.22386 12.7806C9.98242 15.5404 12.2895 16.79 13.7888 17.3555C14.9158 17.7805 16.0692 17.2263 16.7579 16.2377L17.3931 15.3258C17.5753 15.0643 17.5193 14.7055 17.266 14.512L14.8092 12.6347C14.4156 12.3339 13.8769 12.3084 13.4566 12.5705L12.0406 13.4539C11.8715 13.5594 11.6612 13.5722 11.4885 13.4727C11.0262 13.2061 10.027 12.5529 8.73919 11.2645C7.45142 9.97616 6.79848 8.97648 6.53208 8.51391C6.43257 8.34112 6.4454 8.13077 6.55086 7.96155L7.43378 6.54489C7.69585 6.1244 7.67032 5.5855 7.36967 5.19169L5.49349 2.7341C5.29995 2.48058 4.94111 2.42466 4.67967 2.60726L3.76051 3.24923C2.77012 3.94096 2.21738 5.09943 2.64745 6.22866C3.21758 7.72562 4.47088 10.0263 7.22386 12.7806Z" fill="white"/>
</svg>
