<svg width="16" height="20" viewBox="0 0 16 20" fill="none" xmlns="http://www.w3.org/2000/svg">
<path d="M5.88195 12.1243C8.27089 14.5133 10.2604 15.6034 11.5513 16.1004C12.5217 16.4739 13.5069 16.0079 14.0898 15.1656L14.6275 14.3886C14.7817 14.1657 14.7308 13.8577 14.512 13.6897L12.389 12.06C12.0489 11.7989 11.5865 11.7727 11.228 11.9941L10.0201 12.7403C9.87584 12.8295 9.69555 12.8388 9.54657 12.752C9.14773 12.5198 8.28518 11.9515 7.16996 10.8363C6.05474 9.72109 5.48651 8.85854 5.25424 8.4597C5.16747 8.31072 5.17679 8.13043 5.26592 7.98615L6.01213 6.7783C6.23361 6.41978 6.20739 5.95742 5.94629 5.61728L4.31684 3.49462C4.14875 3.27565 3.84043 3.22481 3.61757 3.37932L2.83407 3.92251C1.98986 4.5078 1.52488 5.49688 1.90293 6.46875C2.40408 7.75711 3.49784 9.7402 5.88195 12.1243Z" fill="#2F3040" fill-opacity="0.6"/>
</svg>
