<svg width="72" height="72" viewBox="0 0 72 72" fill="none" xmlns="http://www.w3.org/2000/svg">
<path d="M71.2383 54.939C56.4313 63 35.9918 63 35.9918 63C35.9918 63 15.5523 63 0.744895 54.939C-3.73528 52.5 12.4938 47.6104 35.9916 47.6104C59.4894 47.6104 75.7815 52.4656 71.2383 54.939Z" fill="#0F3580"/>
<path d="M35.9917 9C28.486 9 24.8884 10.9407 23.2824 12.2492C23.037 12.4491 22.8281 12.7511 22.725 13.3454C22.6129 13.9923 22.6581 14.8618 22.9013 15.8793L28.1934 38.7283C28.5919 40.3959 30.1297 41.5772 31.9021 41.5772H40.0904C41.8628 41.5772 43.4006 40.3959 43.7991 38.7283L49.0821 15.8793C49.3252 14.8618 49.3704 13.9923 49.2583 13.3454C49.1553 12.7511 48.9463 12.4491 48.7009 12.2492C47.0949 10.9407 43.4974 9 35.9917 9Z" fill="#0F3580"/>
<path d="M52.4401 17.6727C61.8392 22.1727 65.8875 32.9716 66.5388 47.25C61.8392 45 50.0903 44.4601 45.3907 44.4601L52.4401 17.6727Z" fill="#0F3580"/>
<path d="M26.5925 44.4594L19.5432 18C10.144 22.1727 6.0957 32.9714 5.44444 47.25C10.144 45 21.8929 44.4594 26.5925 44.4594Z" fill="#0F3580"/>
</svg>
