<svg width="73" height="72" viewBox="0 0 73 72" fill="none" xmlns="http://www.w3.org/2000/svg">
<path d="M37.0504 35.24H34.9904V32.2H36.9504C37.76 32.2 38.0304 33.0574 38.0304 33.72C38.0304 34.3329 37.8206 35.24 37.0504 35.24Z" fill="#0F3580"/>
<path d="M47.3313 37.32C47.0683 36.4259 47.0679 35.4526 47.3113 34.56C47.5812 33.6423 48.1208 32.9216 48.9113 32.5C49.7702 32.0567 50.944 32.0603 51.8113 32.48C52.6281 32.8752 53.1614 33.6093 53.4313 34.5C53.6943 35.3678 53.7018 36.3404 53.4313 37.26C53.1944 38.1286 52.6631 38.921 51.8513 39.34C50.9893 39.7849 49.8018 39.7812 48.9313 39.36C48.1216 38.9281 47.5948 38.1895 47.3313 37.32Z" fill="#0F3580"/>
<path fill-rule="evenodd" clip-rule="evenodd" d="M46.9412 10.3901L36.3333 0L25.7253 10.3901L10.8774 10.5442L10.7233 25.392L0.333252 36L10.7233 46.608L10.8774 61.4558L25.7253 61.6099L36.3333 72L46.9412 61.6099L61.7891 61.4558L61.9432 46.608L72.3333 36L61.9432 25.392L61.7891 10.5442L46.9412 10.3901ZM16.5622 33.24C15.9075 34.9315 15.9242 36.7388 16.6022 38.46C17.6838 41.164 20.2522 43.12 23.2222 43.12C24.0356 43.12 24.8556 42.9933 25.6822 42.74C27.1719 42.2595 28.6929 41.3289 29.3022 39.82L26.1222 37.92C25.6854 39.0848 24.4874 39.66 23.3022 39.66C21.8295 39.66 20.7006 38.675 20.2622 37.32C19.9848 36.4623 19.9677 35.5133 20.2222 34.58C20.6442 33.1875 21.749 32.18 23.2622 32.18C24.4807 32.18 25.734 32.7333 26.1822 33.94L29.1622 31.82C28.0442 29.7048 25.6422 28.72 23.3422 28.72C20.3669 28.72 17.6604 30.4727 16.5622 33.24ZM37.2104 28.8H31.0904V43H34.9904V38.64H37.3104C39.9403 38.64 41.9904 36.3179 41.9904 33.72C41.9904 31.1627 39.812 28.8 37.2104 28.8ZM47.4113 42.52C49.2117 43.3384 51.4634 43.3344 53.2713 42.54C54.971 41.7674 56.3466 40.3745 57.0513 38.64C57.7646 36.9493 57.7608 35.0173 57.0713 33.32C56.3987 31.5713 55.0818 30.1175 53.3713 29.34C51.5709 28.4944 49.3285 28.5134 47.5113 29.3C45.7978 30.0529 44.4378 31.4578 43.7113 33.18C42.9919 34.8852 43.0098 36.84 43.6713 38.56C44.3824 40.3105 45.7001 41.7163 47.4113 42.52Z" fill="#0F3580"/>
</svg>
