<svg width="73" height="72" viewBox="0 0 73 72" fill="none" xmlns="http://www.w3.org/2000/svg">
<path d="M20.9946 28.8V43H24.8946V28.8H20.9946Z" fill="#0F3580"/>
<path d="M36.3422 33.44L38.0222 30.22C37.5956 30.0067 37.0956 29.78 36.5222 29.54C35.9622 29.3 35.3556 29.1 34.7022 28.94C34.0622 28.7667 33.3955 28.68 32.7022 28.68C31.7689 28.68 30.8955 28.8667 30.0822 29.24C29.2822 29.6 28.6356 30.1333 28.1422 30.84C27.3054 32.0387 27.103 33.9372 27.7822 35.26C28.0356 35.74 28.4289 36.16 28.9622 36.52C29.4956 36.8667 30.1756 37.18 31.0022 37.46C31.5756 37.6467 32.0956 37.8133 32.5622 37.96C33.0854 38.1053 34.1622 38.3314 34.1622 39.04C34.1622 39.6163 33.4413 39.66 33.0222 39.66C31.9462 39.66 30.8939 39.3217 29.9222 38.88C29.4168 38.6502 28.9374 38.3851 28.4622 38.1L26.7822 41.52C27.3556 41.8533 27.9889 42.1467 28.6822 42.4C30.0594 42.8767 31.5007 43.18 32.9622 43.18C34.2558 43.18 35.572 42.9268 36.6622 42.2C37.8611 41.4007 38.3622 40.0602 38.3622 38.66C38.3622 37.1438 37.7109 35.9105 36.3622 35.18C35.2037 34.5525 33.9185 34.1969 32.6622 33.82C32.2756 33.7 31.9756 33.5667 31.7622 33.42C31.3793 33.1567 31.3003 32.531 31.7622 32.3C31.9756 32.1933 32.2489 32.14 32.5822 32.14C33.0089 32.14 33.4422 32.2067 33.8822 32.34C34.8233 32.6252 35.5852 32.9947 36.3422 33.44Z" fill="#0F3580"/>
<path fill-rule="evenodd" clip-rule="evenodd" d="M43.946 42.52C45.7464 43.3384 47.998 43.3344 49.806 42.54C51.5057 41.7674 52.8813 40.3745 53.586 38.64C54.2992 36.9493 54.2955 35.0173 53.606 33.32C52.9334 31.5713 51.6165 30.1175 49.906 29.34C48.1056 28.4944 45.8632 28.5134 44.046 29.3C42.3325 30.0529 40.9725 31.4578 40.246 33.18C39.5266 34.8852 39.5444 36.84 40.206 38.56C40.9171 40.3105 42.2348 41.7163 43.946 42.52ZM43.866 37.32C43.603 36.4259 43.6025 35.4526 43.846 34.56C44.1159 33.6423 44.6555 32.9216 45.446 32.5C46.3049 32.0567 47.4786 32.0603 48.346 32.48C49.1628 32.8752 49.6961 33.6093 49.966 34.5C50.2289 35.3678 50.2364 36.3404 49.966 37.26C49.7291 38.1286 49.1978 38.921 48.386 39.34C47.5239 39.7849 46.3365 39.7812 45.466 39.36C44.6562 38.9281 44.1295 38.1895 43.866 37.32Z" fill="#0F3580"/>
<path fill-rule="evenodd" clip-rule="evenodd" d="M72.6667 36C72.6667 55.8823 56.549 72 36.6667 72C16.7845 72 0.666748 55.8823 0.666748 36C0.666748 16.1177 16.7845 0 36.6667 0C56.549 0 72.6667 16.1177 72.6667 36ZM68.6667 36C68.6667 53.6731 54.3399 68 36.6667 68C18.9936 68 4.66675 53.6731 4.66675 36C4.66675 18.3269 18.9936 4 36.6667 4C54.3399 4 68.6667 18.3269 68.6667 36Z" fill="#0F3580"/>
</svg>
