<svg width="20" height="20" viewBox="0 0 20 20" fill="none" xmlns="http://www.w3.org/2000/svg">
<path fill-rule="evenodd" clip-rule="evenodd" d="M14.788 16.8454C15.0295 17.005 15.3407 17.0449 15.6182 16.9469C15.8957 16.8482 16.0997 16.627 16.1612 16.3589C16.8129 13.5001 18.3939 6.26421 18.9871 3.6637C19.0321 3.4677 18.9571 3.264 18.7921 3.1331C18.6271 3.0022 18.3984 2.9644 18.1944 3.0351C15.0497 4.12151 5.3652 7.51301 1.40679 8.88011C1.15554 8.96691 0.992049 9.19231 1.0003 9.43941C1.0093 9.68721 1.18779 9.90211 1.44504 9.97421C3.22025 10.4698 5.55044 11.1593 5.55044 11.1593C5.55044 11.1593 6.63942 14.2288 7.20716 15.7898C7.27841 15.9858 7.44265 16.1398 7.6594 16.193C7.87539 16.2455 8.10639 16.1902 8.26763 16.0481C9.17961 15.2445 10.5896 14.002 10.5896 14.002C10.5896 14.002 13.2685 15.8353 14.788 16.8454ZM6.53067 10.7715L7.78989 14.6481L8.06964 12.1932C8.06964 12.1932 12.9348 8.09751 15.7082 5.76301C15.7892 5.69441 15.8005 5.57961 15.733 5.49911C15.6662 5.41861 15.5432 5.39971 15.451 5.45431C12.2365 7.37021 6.53067 10.7715 6.53067 10.7715Z" fill="#0F3580"/>
</svg>
