<svg width="44" height="40" viewBox="0 0 44 40" fill="none" xmlns="http://www.w3.org/2000/svg">
<rect width="44" height="40" rx="4" fill="#0F3580"/>
<path fill-rule="evenodd" clip-rule="evenodd" d="M31.5294 14.8327C31.6776 14.363 31.5294 14.0214 30.8727 14.0214H28.691C28.1403 14.0214 27.8861 14.3203 27.7379 14.6406C27.7379 14.6406 26.6152 17.3737 25.0478 19.1459C24.5394 19.6584 24.3064 19.8292 24.0311 19.8292C23.8828 19.8292 23.6922 19.6584 23.6922 19.1886V14.8114C23.6922 14.2562 23.5228 14 23.0567 14H19.6254C19.2864 14 19.0747 14.2562 19.0747 14.5125C19.0747 15.0463 19.8583 15.1744 19.9431 16.669V19.9146C19.9431 20.6192 19.816 20.7473 19.5406 20.7473C18.7993 20.7473 16.9989 17.9929 15.9186 14.8541C15.7067 14.2349 15.495 14 14.9443 14H12.7413C12.1059 14 12 14.299 12 14.6192C12 15.1958 12.7413 18.0997 15.4526 21.9431C17.253 24.5694 19.816 25.9786 22.1248 25.9786C23.5228 25.9786 23.6922 25.6584 23.6922 25.1246V23.1388C23.6922 22.4982 23.8193 22.3915 24.2641 22.3915C24.5818 22.3915 25.1537 22.5623 26.4458 23.8221C27.9285 25.3167 28.1826 26 29.0087 26H31.1904C31.8259 26 32.1224 25.6797 31.953 25.0605C31.7623 24.4413 31.0422 23.5445 30.1102 22.4769C29.6018 21.879 28.8393 21.2171 28.6063 20.8968C28.2886 20.4698 28.3733 20.299 28.6063 19.9146C28.5851 19.9146 31.254 16.1139 31.5294 14.8327Z" fill="white"/>
</svg>
