<svg width="20" height="12" viewBox="0 0 20 12" fill="none" xmlns="http://www.w3.org/2000/svg">
<path fill-rule="evenodd" clip-rule="evenodd" d="M19.5294 0.83274C19.6776 0.363012 19.5294 0.0213685 18.8727 0.0213685H16.691C16.1403 0.0213685 15.8861 0.320275 15.7379 0.640613C15.7379 0.640613 14.6152 3.3737 13.0478 5.14589C12.5394 5.65836 12.3064 5.82918 12.0311 5.82918C11.8828 5.82918 11.6922 5.65836 11.6922 5.18863V0.811371C11.6922 0.256232 11.5228 0 11.0567 0H7.62535C7.28644 0 7.07465 0.256232 7.07465 0.512465C7.07465 1.0463 7.85834 1.17438 7.94306 2.66904V5.91459C7.94306 6.61924 7.816 6.74733 7.54062 6.74733C6.79927 6.74733 4.99886 3.99288 3.9186 0.854108C3.70675 0.234864 3.49496 0 2.94426 0H0.741344C0.105913 0 0 0.298969 0 0.619244C0 1.19575 0.741345 4.09966 3.45256 7.94308C5.25304 10.5694 7.816 11.9786 10.1248 11.9786C11.5228 11.9786 11.6922 11.6584 11.6922 11.1246V9.13883C11.6922 8.49822 11.8193 8.3915 12.2641 8.3915C12.5818 8.3915 13.1537 8.56226 14.4458 9.82206C15.9285 11.3167 16.1826 12 17.0087 12H19.1904C19.8259 12 20.1224 11.6797 19.953 11.0605C19.7623 10.4413 19.0422 9.54452 18.1102 8.47685C17.6018 7.87904 16.8393 7.21712 16.6063 6.89678C16.2886 6.46979 16.3733 6.29897 16.6063 5.91459C16.5851 5.91459 19.254 2.1139 19.5294 0.83274Z" fill="white"/>
</svg>
