<svg width="20" height="20" viewBox="0 0 20 20" fill="none" xmlns="http://www.w3.org/2000/svg">
<path fill-rule="evenodd" clip-rule="evenodd" d="M19.5294 4.83274C19.6776 4.36301 19.5294 4.02137 18.8727 4.02137H16.691C16.1403 4.02137 15.8861 4.32027 15.7379 4.64061C15.7379 4.64061 14.6152 7.3737 13.0478 9.14589C12.5394 9.65836 12.3064 9.82918 12.0311 9.82918C11.8828 9.82918 11.6922 9.65836 11.6922 9.18863V4.81137C11.6922 4.25623 11.5228 4 11.0567 4H7.62535C7.28644 4 7.07465 4.25623 7.07465 4.51246C7.07465 5.0463 7.85834 5.17438 7.94306 6.66904V9.91459C7.94306 10.6192 7.816 10.7473 7.54062 10.7473C6.79927 10.7473 4.99886 7.99288 3.9186 4.85411C3.70675 4.23486 3.49496 4 2.94426 4H0.741344C0.105913 4 0 4.29897 0 4.61924C0 5.19575 0.741345 8.09966 3.45256 11.9431C5.25304 14.5694 7.816 15.9786 10.1248 15.9786C11.5228 15.9786 11.6922 15.6584 11.6922 15.1246V13.1388C11.6922 12.4982 11.8193 12.3915 12.2641 12.3915C12.5818 12.3915 13.1537 12.5623 14.4458 13.8221C15.9285 15.3167 16.1826 16 17.0087 16H19.1904C19.8259 16 20.1224 15.6797 19.953 15.0605C19.7623 14.4413 19.0422 13.5445 18.1102 12.4769C17.6018 11.879 16.8393 11.2171 16.6063 10.8968C16.2886 10.4698 16.3733 10.299 16.6063 9.91459C16.5851 9.91459 19.254 6.1139 19.5294 4.83274Z" fill="#0F3580"/>
</svg>
