<svg width="16" height="16" viewBox="0 0 16 16" fill="none" xmlns="http://www.w3.org/2000/svg">
<path fill-rule="evenodd" clip-rule="evenodd" d="M14.32 15H1.67994C0.387619 15 -0.418512 13.6251 0.227649 12.5303L6.5477 1.82112C7.19508 0.726294 8.80615 0.726294 9.45231 1.82112L15.7724 12.5303C16.4185 13.6251 15.6124 15 14.32 15ZM8 4C7.44772 4 7 4.44772 7 5V9C7 9.55228 7.44772 10 8 10C8.55229 10 9 9.55228 9 9V5C9 4.44772 8.55229 4 8 4ZM8 11C7.44772 11 7 11.4477 7 12C7 12.5523 7.44772 13 8 13C8.55229 13 9 12.5523 9 12C9 11.4477 8.55229 11 8 11Z" fill="black"/>
</svg>
