<svg width="20" height="20" viewBox="0 0 20 20" fill="none" xmlns="http://www.w3.org/2000/svg">
<g clip-path="url(#clip0_254_986)">
<path d="M14.7501 11.4684C14.7781 11.4821 14.7952 11.4905 14.799 11.4923C14.9899 11.5839 15.1408 11.6564 15.2283 11.8003C15.3561 12.0119 15.3055 12.595 15.1134 13.1287C14.8696 13.8063 13.7976 14.3618 13.3098 14.405L13.2383 14.4118C13.1255 14.4229 12.9976 14.4355 12.8379 14.4355C12.4577 14.4355 11.789 14.3703 10.377 13.8062C8.91034 13.2203 7.46352 11.9642 6.30293 10.2693C6.29956 10.2644 6.29637 10.2597 6.29335 10.2553C6.2784 10.2334 6.26777 10.2178 6.26151 10.2094C5.95845 9.81 5.25261 8.75981 5.25261 7.64754C5.25261 6.41169 5.84417 5.70896 6.19384 5.48851C6.52358 5.28065 7.26936 5.18247 7.40631 5.17669C7.48753 5.17327 7.49611 5.17232 7.50471 5.17205C7.50802 5.17195 7.51133 5.17195 7.51878 5.17195C7.8078 5.17195 8.01579 5.34734 8.17319 5.72403C8.1889 5.7615 8.23631 5.87558 8.29978 6.02828C8.50071 6.51179 8.86257 7.38253 8.88878 7.43494C8.93079 7.51734 9.06079 7.77254 8.90858 8.07494L8.87592 8.14059C8.81366 8.26679 8.7597 8.37618 8.63904 8.51656C8.60027 8.56137 8.56079 8.6089 8.52138 8.65637C8.4382 8.75648 8.35202 8.8602 8.27267 8.9387C8.24553 8.96591 8.19293 9.01864 8.18722 9.03961C8.18724 9.03961 8.18717 9.03928 8.18722 9.03961C8.18771 9.04278 8.19063 9.06142 8.21164 9.09721C8.37443 9.37273 9.56164 11.0066 11.1257 11.686C11.194 11.7157 11.4197 11.8086 11.4327 11.8086C11.4473 11.8086 11.4716 11.7843 11.4894 11.764C11.6256 11.61 12.0665 11.0946 12.2122 10.8781C12.341 10.6854 12.5064 10.5873 12.7033 10.5873C12.8238 10.5873 12.9371 10.6244 13.0429 10.6623C13.2769 10.7466 14.4889 11.3404 14.7501 11.4684Z" fill="#0F3580"/>
<path fill-rule="evenodd" clip-rule="evenodd" d="M0.354385 9.74955C0.354385 4.37364 4.76114 0 10.1778 0C15.5939 0 20.0002 4.37364 20.0002 9.74955C20.0002 15.1249 15.5939 19.4981 10.1778 19.498C8.55341 19.498 6.94835 19.0975 5.52822 18.3387L0.338606 19.9878C0.312762 19.996 0.286268 20 0.259969 20C0.191333 20 0.124125 19.9727 0.0745797 19.9221C0.00594334 19.8523 -0.0174333 19.7497 0.0139953 19.6569L1.7012 14.6799C0.81971 13.1903 0.354385 11.4883 0.354385 9.74955ZM5.8962 16.1907C7.1688 17.0258 8.64925 17.4671 10.1778 17.4671C14.4677 17.4671 17.9578 14.0051 17.9577 9.74955C17.9577 5.49351 14.4676 2.03091 10.1777 2.03091C5.88731 2.03091 2.39679 5.49351 2.39679 9.74955C2.39679 11.3854 2.90906 12.9499 3.87815 14.274C3.92815 14.3423 3.94172 14.4307 3.91458 14.5108L3.07536 16.9868L5.67503 16.1604C5.70081 16.1522 5.72731 16.1482 5.75374 16.1482C5.80374 16.1482 5.85341 16.1626 5.8962 16.1907Z" fill="#0F3580"/>
</g>
<defs>
<clipPath id="clip0_254_986">
<rect width="20" height="20" fill="white"/>
</clipPath>
</defs>
</svg>
