<?xml version="1.0" standalone="no"?>
<!DOCTYPE svg PUBLIC "-//W3C//DTD SVG 20010904//EN"
 "http://www.w3.org/TR/2001/REC-SVG-20010904/DTD/svg10.dtd">
<svg version="1.0" xmlns="http://www.w3.org/2000/svg"
 width="700.000000pt" height="700.000000pt" viewBox="0 0 700.000000 700.000000"
 preserveAspectRatio="xMidYMid meet">
<metadata>
Created by potrace 1.14, written by Peter Selinger 2001-2017
</metadata>
<g transform="translate(0.000000,700.000000) scale(0.100000,-0.100000)"
fill="#000000" stroke="none">
<path d="M1478 5779 c-261 -15 -552 -66 -819 -143 -224 -65 -313 -99 -317
-122 -1 -11 92 -972 208 -2137 115 -1165 210 -2125 210 -2133 0 -11 14 -6 53
16 269 158 593 283 888 344 222 46 378 59 624 53 298 -7 517 -43 763 -123 127
-42 318 -131 372 -174 l39 -31 49 36 c134 96 445 203 742 254 344 60 721 55
1055 -15 260 -55 588 -185 813 -323 54 -33 82 -45 82 -36 0 8 95 967 210 2132
116 1165 209 2127 208 2137 -4 23 -87 55 -312 121 -642 185 -1274 197 -1834
34 -361 -105 -713 -291 -950 -503 l-64 -57 -51 48 c-234 219 -652 435 -1033
533 -294 76 -622 107 -936 89z m1699 -963 l332 -146 333 146 c183 80 339 148
346 151 9 4 12 -82 12 -410 l0 -414 -345 -152 -346 -151 -317 139 c-174 76
-329 145 -344 152 l-28 12 0 415 c0 327 3 413 13 409 6 -3 161 -71 344 -151z
m-40 -909 l372 -164 371 163 c205 90 380 166 391 169 19 6 19 -4 17 -465 l-3
-472 -388 -170 -387 -170 -395 173 -395 173 0 469 0 469 23 -6 c12 -3 189 -79
394 -169z m-53 -1027 c226 -99 418 -180 425 -180 8 0 200 81 425 180 226 99
414 180 419 180 4 0 7 -227 7 -504 0 -393 -3 -507 -12 -513 -7 -4 -199 -90
-426 -189 l-414 -182 -146 65 c-81 35 -272 119 -424 186 l-278 121 0 508 c0
279 3 508 7 508 4 0 192 -81 417 -180z"/>
<path d="M3743 4702 l-173 -76 0 -223 0 -222 78 33 c42 19 125 55 185 81 l107
47 0 219 c0 169 -3 219 -12 218 -7 0 -91 -35 -185 -77z"/>
<path d="M3246 4673 c-3 -4 -6 -93 -6 -200 0 -106 -2 -193 -5 -193 -2 0 -71
29 -154 65 -82 36 -154 65 -160 65 -7 0 -11 -34 -11 -100 0 -99 0 -100 28
-114 23 -12 415 -185 460 -203 9 -4 12 61 12 306 l0 311 -22 9 c-13 5 -48 21
-79 35 -31 13 -60 22 -63 19z"/>
<path d="M3775 3780 l-200 -88 -3 -251 c-1 -148 1 -251 7 -251 5 0 101 40 213
89 l203 89 3 251 c2 198 0 251 -10 250 -7 0 -103 -40 -213 -89z"/>
<path d="M3208 3531 l-3 -238 -175 76 c-96 43 -183 80 -192 84 -17 6 -18 -4
-18 -121 l0 -128 278 -122 c152 -66 285 -124 295 -128 16 -6 17 16 17 362 l0
369 -63 26 c-34 15 -79 34 -99 43 l-38 16 -2 -239z"/>
<path d="M3798 2732 l-218 -97 0 -267 c0 -208 3 -268 13 -267 6 0 107 42 222
93 l210 92 3 272 c1 150 -1 272 -5 271 -5 0 -106 -44 -225 -97z"/>
<path d="M3190 2469 c0 -176 -3 -259 -11 -259 -9 0 -391 164 -411 177 -5 2 -8
-60 -8 -139 l0 -143 214 -92 c117 -51 263 -115 325 -142 l111 -50 -2 406 -3
406 -107 48 -108 47 0 -259z"/>
</g>
</svg>
