<svg width="870" height="140" viewBox="0 0 870 140" fill="none" xmlns="http://www.w3.org/2000/svg">
<path d="M49.5174 120.555C61.7644 120.555 71.6925 110.631 71.6925 98.3888C71.6925 86.1465 61.7644 76.2222 49.5174 76.2222C39.0103 76.2222 30.21 83.527 27.9216 93.3333M49.5174 120.555V140M49.5174 120.555V115.111M49.5174 120.555C44.7328 120.555 40.3022 119.041 36.6791 116.465C36.3814 116.253 36.09 116.035 35.8051 115.809M49.5174 88.6666V98.3888M49.5174 98.3888L59.2433 88.6666M49.5174 98.3888L39.7914 88.6666M49.5174 98.3888V115.111M49.5174 115.111L63.1337 101.5M49.5174 115.111L35.7293 101.111M27.9216 93.3333C27.9168 93.3538 27.912 93.3744 27.9073 93.395M27.9216 93.3333L27.9073 93.395M20.7286 125.298C11.4897 125.298 4 117.794 4 108.538C4 99.2815 11.4897 91.7777 20.7286 91.7777C23.2979 91.7777 25.732 92.358 27.9073 93.395M20.7286 125.298V140M20.7286 125.298V121.182M20.7286 125.298C27.367 125.298 33.1023 121.424 35.8051 115.809M20.7286 101.187V108.538M20.7286 108.538L28.0657 101.187M20.7286 108.538L13.3915 101.187M20.7286 108.538V121.182M20.7286 121.182L31.0006 110.89M20.7286 121.182L10.4567 110.89M27.9073 93.395C31.3003 95.0125 34.0639 97.741 35.7293 101.111M35.8051 115.809C36.8638 113.61 37.4572 111.143 37.4572 108.538C37.4572 105.871 36.8355 103.349 35.7293 101.111" stroke="#91CB82" stroke-width="4"/>
<path d="M663.09 120.556C650.843 120.556 640.914 110.631 640.914 98.3889C640.914 86.1466 650.843 76.2222 663.09 76.2222C673.597 76.2222 682.397 83.527 684.685 93.3333M663.09 120.556V140M663.09 120.556V115.111M663.09 120.556C667.874 120.556 672.305 119.041 675.928 116.465C676.225 116.253 676.517 116.035 676.802 115.809M663.09 88.6667V98.3889M663.09 98.3889L653.364 88.6667M663.09 98.3889L672.815 88.6667M663.09 98.3889V115.111M663.09 115.111L649.473 101.5M663.09 115.111L676.878 101.111M684.685 93.3333C684.69 93.3539 684.695 93.3745 684.7 93.3951M684.685 93.3333L684.7 93.3951M691.878 125.298C701.117 125.298 708.607 117.794 708.607 108.538C708.607 99.2816 701.117 91.7778 691.878 91.7778C689.309 91.7778 686.875 92.3581 684.7 93.3951M691.878 125.298V140M691.878 125.298V121.182M691.878 125.298C685.24 125.298 679.505 121.424 676.802 115.809M691.878 101.187V108.538M691.878 108.538L684.541 101.187M691.878 108.538L699.215 101.187M691.878 108.538V121.182M691.878 121.182L681.606 110.89M691.878 121.182L702.15 110.89M684.7 93.3951C681.307 95.0125 678.543 97.741 676.878 101.111M676.802 115.809C675.743 113.61 675.15 111.143 675.15 108.538C675.15 105.871 675.771 103.35 676.878 101.111" stroke="#91CB82" stroke-width="4"/>
<path d="M508.031 126.009C516.84 126.009 523.981 118.869 523.981 110.06C523.981 101.252 516.84 94.1111 508.031 94.1111C499.221 94.1111 492.08 101.252 492.08 110.06C492.08 118.869 499.221 126.009 508.031 126.009ZM508.031 126.009V140M508.031 126.009V122.092M508.031 103.065V110.06M508.031 110.06L515.026 103.065M508.031 110.06L501.035 103.065M508.031 110.06V122.092M508.031 122.092L517.825 112.299M508.031 122.092L498.236 112.299" stroke="#91CB82" stroke-width="4"/>
<path d="M197.933 132.05C199.148 133.114 200.601 133.872 202.17 134.26C203.738 134.648 205.377 134.654 206.948 134.279C208.52 133.904 209.978 133.158 211.202 132.103C212.426 131.049 213.38 129.717 213.983 128.218C214.586 126.72 214.821 125.099 214.668 123.491C214.516 121.883 213.981 120.335 213.107 118.977C212.233 117.618 211.582 116.643 209.646 115.682C207.711 114.722 205.337 114.394 205.337 114.394C205.337 114.394 206.214 111.789 206.144 110.417C206.074 109.044 205.658 107.711 204.936 106.542C204.214 105.373 203.208 104.405 202.011 103.727C200.815 103.05 199.467 102.686 198.092 102.667C196.718 102.649 195.361 102.978 194.147 103.624C192.933 104.27 191.902 105.211 191.149 106.361C190.396 107.511 189.946 108.832 189.84 110.202C189.729 111.625 189.996 113.077 190.62 114.361C189.088 114.475 187.601 114.937 186.273 115.712C184.887 116.52 183.714 117.646 182.85 118.997C181.986 120.348 181.455 121.885 181.302 123.481C181.15 125.077 181.379 126.687 181.971 128.177C182.563 129.667 183.501 130.995 184.708 132.052C185.915 133.108 187.356 133.862 188.912 134.252C190.468 134.642 192.094 134.656 193.657 134.294C194.677 134.058 197.207 132.611 197.933 132.05ZM197.933 132.05V140M197.933 132.05C198.023 131.506 198.072 130.765 198.035 129.889M193.657 119.389C196.942 122.94 197.92 127.1 198.035 129.889M198.035 129.889C199.056 128.087 201.642 124.284 203.821 123.491" stroke="#91CB82" stroke-width="4"/>
<path d="M81 140V99.9444L103.564 88.6666L126.128 99.9444V140" stroke="#91CB82" stroke-width="4"/>
<path d="M126.128 140V99.9444L148.692 88.6666L171.256 99.9444V140" stroke="#91CB82" stroke-width="4"/>
<rect x="90.3369" y="108.111" width="5.44653" height="9.33334" fill="#91CB82"/>
<rect x="90.3369" y="122.111" width="5.44653" height="9.33333" fill="#91CB82"/>
<rect x="112.123" y="108.111" width="5.44653" height="9.33334" fill="#91CB82"/>
<rect x="112.123" y="122.111" width="5.44653" height="9.33333" fill="#91CB82"/>
<rect x="101.23" y="108.111" width="5.44652" height="9.33334" fill="#91CB82"/>
<rect x="101.23" y="122.111" width="5.44652" height="9.33333" fill="#91CB82"/>
<rect x="135.465" y="108.111" width="5.44653" height="9.33334" fill="#91CB82"/>
<rect x="135.465" y="122.111" width="5.44653" height="9.33333" fill="#91CB82"/>
<rect x="157.251" y="108.111" width="5.44652" height="9.33334" fill="#91CB82"/>
<rect x="157.251" y="122.111" width="5.44652" height="9.33333" fill="#91CB82"/>
<rect x="146.358" y="108.111" width="5.44652" height="9.33334" fill="#91CB82"/>
<rect x="146.358" y="122.111" width="5.44652" height="9.33333" fill="#91CB82"/>
<rect x="801.198" y="117.444" width="5.44659" height="17.1111" fill="#91CB82"/>
<rect x="609.893" y="31" width="5.44653" height="9.33333" fill="#91CB82"/>
<rect x="609.893" y="44.7778" width="5.44653" height="9.33333" fill="#91CB82"/>
<rect x="599" y="31" width="5.4465" height="9.33333" fill="#91CB82"/>
<rect x="589" y="31" width="5.4465" height="9.33333" fill="#91CB82"/>
<rect x="599" y="45" width="5.4465" height="9.33333" fill="#91CB82"/>
<rect x="609.893" y="59.2222" width="5.44653" height="9.33333" fill="#91CB82"/>
<rect x="609.893" y="73.2222" width="5.44653" height="9.33334" fill="#91CB82"/>
<rect x="609.893" y="88" width="5.44653" height="9.33334" fill="#91CB82"/>
<rect x="599" y="59.2222" width="5.4465" height="9.33333" fill="#91CB82"/>
<rect x="599" y="73.2222" width="5.4465" height="9.33334" fill="#91CB82"/>
<rect x="584.671" y="105" width="5.4465" height="9.33334" fill="#91CB82"/>
<rect x="573.778" y="105" width="5.44653" height="9.33334" fill="#91CB82"/>
<rect x="544.989" y="59" width="5.4465" height="9.33333" fill="#91CB82"/>
<rect x="566.775" y="59" width="5.44653" height="9.33333" fill="#91CB82"/>
<rect x="561.329" y="72.2222" width="5.4465" height="9.33333" fill="#91CB82"/>
<rect x="555.882" y="59" width="5.44653" height="9.33333" fill="#91CB82"/>
<rect x="550.436" y="72.2222" width="5.44653" height="9.33333" fill="#91CB82"/>
<path d="M533.318 140V47.3333H569.212M562.107 140V94.1111H583.115M600.233 140V94.1111H583.115M583.115 94.1111V47.3333H569.212M629.8 140V20H614.5M569.212 47.3333V20H585.5M585.5 20V4H614.5V20M585.5 20H614.5" stroke="#91CB82" stroke-width="4"/>
<rect x="841.436" y="117.444" width="5.44653" height="17.1111" fill="#91CB82"/>
<rect x="811.869" y="117.444" width="5.44653" height="17.1111" fill="#91CB82"/>
<rect x="776.855" y="117.444" width="5.44656" height="17.1111" fill="#91CB82"/>
<rect x="734.84" y="117.444" width="5.44653" height="17.1111" fill="#91CB82"/>
<rect x="746.511" y="117.444" width="5.44653" height="17.1111" fill="#91CB82"/>
<rect x="829.765" y="117.444" width="5.44653" height="17.1111" fill="#91CB82"/>
<rect x="765.185" y="117.444" width="5.44653" height="17.1111" fill="#91CB82"/>
<path d="M854.663 140V107.333H727.059V140" stroke="#91CB82" stroke-width="4"/>
<path d="M864 93.3333H717.722L723.947 107.333H857.776L864 93.3333Z" stroke="#91CB82" stroke-width="4"/>
<path d="M740.286 94.111C740.286 94.111 759.738 65.3333 790.861 65.3333C821.984 65.3333 841.436 94.111 841.436 94.111" stroke="#91CB82" stroke-width="4"/>
<path d="M772.965 48.2222H808.757L804.088 59.8888H777.634L772.965 48.2222Z" stroke="#91CB82" stroke-width="4"/>
<path d="M790.861 59.8888V65.3332" stroke="#91CB82" stroke-width="4"/>
<path d="M782.302 59.8888V66.111" stroke="#91CB82" stroke-width="4"/>
<path d="M800.198 59.8888V66.111" stroke="#91CB82" stroke-width="4"/>
<rect x="468.852" y="118" width="5.44653" height="17.1111" fill="#91CB82"/>
<rect x="230.406" y="118" width="5.44653" height="17.1111" fill="#91CB82"/>
<rect x="239.852" y="118" width="5.44653" height="17.1111" fill="#91CB82"/>
<rect x="459.406" y="118" width="5.44653" height="17.1111" fill="#91CB82"/>
<path d="M481.406 140V110H461.406M223.406 140V110H243.406M461.406 110V93L457.406 93C457.406 93 417.406 59 351.691 59C285.977 59 247.406 93 247.406 93H243.406V110M461.406 110H395.406M243.406 110H308.906" stroke="#91CB82" stroke-width="4"/>
<path d="M398.916 110H305.896M398.916 110C398.915 108.8 398.915 100.261 398.915 98.6412M398.916 110V140M305.896 110V98.541M305.896 110V140M305.896 98.541C302.236 100.555 300.406 102.049 300.406 102.049H296.406M305.896 98.541C313.459 94.3797 328.836 88 352.032 88C375.414 88 391.197 94.483 398.915 98.6412M398.915 98.6412C402.559 100.604 404.406 102.049 404.406 102.049H408.406" stroke="#91CB82" stroke-width="4"/>
<path d="M345.406 66H359.406V79.3043L352.406 84L345.406 79.3043V66Z" stroke="#91CB82" stroke-width="4"/>
<path d="M367.406 140V131.818M337.406 140V131.818M337.406 120.909V110H367.406V120.909M337.406 120.909H367.406M337.406 120.909V131.818M367.406 120.909V131.818M337.406 131.818H367.406" stroke="#91CB82" stroke-width="4"/>
</svg>
